<svg xmlns="http://www.w3.org/2000/svg" xmlns:xlink="http://www.w3.org/1999/xlink" width="205px" height="40px" viewBox="0 0 205 40" version="1.1">
    <g id="Error-Pages" stroke="none" stroke-width="1" fill="none" fill-rule="evenodd">
        <g id="error-404---1364" transform="translate(-24.000000, -24.000000)" fill="#25282D">
            <g id="component/header/transparent/1364">
                <g id="address-HR-logo@SVG" transform="translate(24.000000, 24.000000)">
                    <polygon id="Fill-17" points="61.1886272 31.7821994 57.6037909 31.7821994 57.6037909 28.95 55.8086124 28.95 55.8086124 36.0088235 57.6037909 36.0088235 57.6037909 33.1504335 61.1886272 33.1504335 61.1886272 36.0088235 62.9856459 36.0088235 62.9856459 28.95 61.1886272 28.95"></polygon>
                    <path d="M71.3688446,34.5768279 C70.1725389,34.5768279 69.3824803,33.7429632 69.3824803,32.4807311 C69.3824803,31.21674 70.1725389,30.3793568 71.3688446,30.3793568 C72.5531313,30.3793568 73.3439912,31.21674 73.3439912,32.4807311 C73.3439912,33.7429632 72.5531313,34.5768279 71.3688446,34.5768279 M71.3688446,28.95 C69.0066816,28.95 67.7751196,30.8130016 67.7751196,32.4807311 C67.7751196,34.2337823 69.0691812,36.0088235 71.3688446,36.0088235 C73.6196303,36.0088235 74.9521531,34.2469764 74.9521531,32.4807311 C74.9521531,30.8253161 73.7262001,28.95 71.3688446,28.95" id="Fill-20"></path>
                    <polygon id="Fill-22" points="79.7416268 30.237856 82.4132246 30.237856 82.4132246 36.0088235 84.2489469 36.0088235 84.2489469 30.237856 86.9186603 30.237856 86.9186603 28.95 79.7416268 28.95"></polygon>
                    <polygon id="Fill-24" points="93.3259727 33.0203836 96.2838556 33.0203836 96.2838556 31.7253025 93.3259727 31.7253025 93.3259727 30.237856 96.4239959 30.237856 96.4239959 28.95 91.708134 28.95 91.708134 36.0088235 96.492823 36.0088235 96.492823 34.7137426 93.3259727 34.7137426"></polygon>
                    <polygon id="Fill-26" points="102.84751 28.95 101.282297 28.95 101.282297 36.0088235 106.066986 36.0088235 106.066986 34.7144801 102.84751 34.7144801"></polygon>
                    <path d="M112.462804,30.7742991 C112.462804,30.4312535 112.818262,30.207834 113.379005,30.207834 C113.911791,30.207834 114.449369,30.3793568 115.356783,30.8261958 L115.356783,29.4830402 C114.569186,29.1083288 113.937352,28.95 113.241614,28.95 C111.793428,28.95 110.856459,29.7354865 110.856459,30.9255911 C110.856459,33.3937603 114.038797,32.9829852 114.038797,34.1115174 C114.038797,34.5152556 113.718486,34.7483508 113.120999,34.7483508 C112.434048,34.7483508 111.884489,34.5152556 110.988258,33.8590709 L110.988258,35.3429632 C111.611306,35.6956845 112.152878,36.0088235 113.241614,36.0088235 C114.633089,36.0088235 115.641148,35.2426883 115.641148,33.923282 C115.641148,31.5184442 112.462804,31.812232 112.462804,30.7742991" id="Fill-28"></path>
                    <path d="M135.52008,31.8484984 L134.435155,31.8484984 L134.435155,30.2380207 L135.469862,30.2380207 C136.235691,30.2380207 136.631161,30.5107994 136.631161,31.0410014 C136.631161,31.6425596 136.077713,31.8484984 135.52008,31.8484984 M137.32794,32.7056734 C138.262209,32.3335384 138.735098,31.7554646 138.735098,30.9750649 C138.735098,29.9227899 137.734917,28.95 136.054696,28.95 L132.397129,28.95 L132.397129,36.0088235 L134.435155,36.0088235 L134.435155,33.1446483 L135.027313,33.1446483 C136.127931,33.1446483 136.451211,34.5022186 137.32794,36.0088235 L139.574163,36.0088235 C138.420188,33.9404031 138.165958,33.0678729 137.32794,32.7056734" id="Fill-30"></path>
                    <polygon id="Fill-32" points="145.983146 33.0203836 148.940909 33.0203836 148.940909 31.7253025 145.983146 31.7253025 145.983146 30.237856 149.085271 30.237856 149.085271 28.95 144.363636 28.95 144.363636 36.0088235 149.148325 36.0088235 149.148325 34.7137426 145.983146 34.7137426"></polygon>
                    <path d="M155.540426,30.7742991 C155.540426,30.4312535 155.901897,30.207834 156.457698,30.207834 C156.987108,30.207834 157.530914,30.3793568 158.439389,30.8261958 L158.439389,29.4830402 C157.651671,29.1083288 157.016698,28.95 156.323346,28.95 C154.873464,28.95 153.937799,29.7354865 153.937799,30.9255911 C153.937799,33.3937603 157.116662,32.9829852 157.116662,34.1115174 C157.116662,34.5152556 156.795977,34.7483508 156.20179,34.7483508 C155.514035,34.7483508 154.963833,34.5152556 154.064154,33.8590709 L154.064154,35.3429632 C154.687931,35.6956845 155.226138,36.0088235 156.323346,36.0088235 C157.71085,36.0088235 158.722488,35.2426883 158.722488,33.923282 C158.722488,31.5184442 155.540426,31.812232 155.540426,30.7742991" id="Fill-34"></path>
                    <path d="M167.103684,34.5768279 C165.91045,34.5768279 165.117097,33.7429632 165.117097,32.4807311 C165.117097,31.21674 165.91045,30.3793568 167.103684,30.3793568 C168.290506,30.3793568 169.083058,31.21674 169.083058,32.4807311 C169.083058,33.7429632 168.290506,34.5768279 167.103684,34.5768279 M167.103684,28.95 C164.738052,28.95 163.511962,30.8130016 163.511962,32.4807311 C163.511962,34.2337823 164.805366,36.0088235 167.103684,36.0088235 C169.354721,36.0088235 170.688995,34.2469764 170.688995,32.4807311 C170.688995,30.8253161 169.462905,28.95 167.103684,28.95" id="Fill-36"></path>
                    <path d="M178.603783,31.8484984 L177.523672,31.8484984 L177.523672,30.2380207 L178.553594,30.2380207 C179.318977,30.2380207 179.714216,30.5107994 179.714216,31.0410014 C179.714216,31.6425596 179.165273,31.8484984 178.603783,31.8484984 M180.413725,32.7056734 C181.348496,32.3335384 181.816927,31.7554646 181.816927,30.9750649 C181.816927,29.9227899 180.821511,28.95 179.146452,28.95 L175.478469,28.95 L175.478469,36.0088235 L177.523672,36.0088235 L177.523672,33.1446483 L178.10712,33.1446483 C179.215462,33.1446483 179.541691,34.5022186 180.413725,36.0088235 L182.655502,36.0088235 C181.5022,33.9404031 181.256483,33.0678729 180.413725,32.7056734" id="Fill-38"></path>
                    <polygon id="Fill-40" points="187.444976 30.237856 190.112104 30.237856 190.112104 36.0088235 191.951113 36.0088235 191.951113 30.237856 194.62201 30.237856 194.62201 28.95 187.444976 28.95"></polygon>
                    <path d="M201.014099,30.7742991 C201.014099,30.4312535 201.375026,30.207834 201.933187,30.207834 C202.464198,30.207834 203.004791,30.3793568 203.911902,30.8261958 L203.911902,29.4830402 C203.125366,29.1083288 202.494542,28.95 201.792649,28.95 C200.348139,28.95 199.411483,29.7354865 199.411483,30.9255911 C199.411483,33.3937603 202.591161,32.9829852 202.591161,34.1115174 C202.591161,34.5152556 202.273353,34.7483508 201.677663,34.7483508 C200.987748,34.7483508 200.438371,34.5152556 199.543238,33.8590709 L199.543238,35.3429632 C200.168474,35.6956845 200.705872,36.0088235 201.792649,36.0088235 C203.190046,36.0088235 204.196172,35.2426883 204.196172,33.923282 C204.196172,31.5184442 201.014099,31.812232 201.014099,30.7742991" id="Fill-42"></path>
                    <polygon id="Fill-44" points="124.861465 28.95 123.336322 28.95 123.184275 28.95 123.184275 31.5618265 120.430622 31.5618265 120.430622 31.7111496 120.430622 33.0073436 120.430622 33.1540158 123.184275 33.1540158 123.184275 36.0088235 124.706619 36.0088235 124.861465 36.0088235 124.861465 33.1504815 127.607656 33.1540158 127.607656 31.7111496 127.607656 31.5618265 124.861465 31.5618265"></polygon>
                    <polygon id="Combined-Shape" points="62.971531 4.70588235 63.3220846 5.32999343 70.1626794 18.8235294 68.8888584 18.8235294 66.8487148 14.7916602 66.3846581 13.8702258 62.9745443 7.13536195 59.5885374 13.8702258 59.1244807 14.7916602 57.0852917 18.8235294 55.8086124 18.8235294"></polygon>
                    <path d="M77.4673905,17.9106669 L73.6173449,17.9106669 L73.6173449,5.61698254 L77.4075047,5.61698254 C81.114345,5.61698254 83.6590553,8.14057145 83.6590553,11.7629436 C83.6590553,15.7404158 80.7541627,17.9106669 77.4673905,17.9106669 M77.3467511,4.70588235 L72.5550239,4.70588235 L72.5550239,18.8235294 L77.5255404,18.8235294 C82.9386907,18.8235294 84.8038281,15.0355027 84.8038281,11.7629436 C84.8038281,8.66044486 83.1617431,4.70588235 77.3467511,4.70588235" id="Fill-2"></path>
                    <path d="M94.2115497,17.9106669 L90.3616031,17.9106669 L90.3616031,5.61698253 L94.1516391,5.61698253 C97.8600563,5.61698253 100.407585,8.14057141 100.407585,11.7629436 C100.407585,15.7404157 97.5014571,17.9106669 94.2115497,17.9106669 M101.55024,11.7629436 C101.55024,8.66044482 99.9065883,4.70588235 94.0891228,4.70588235 L89.3014354,4.70588235 L89.3014354,18.8235294 L94.2714611,18.8235294 C99.6869145,18.8235294 101.55024,15.0355026 101.55024,11.7629436" id="Fill-4"></path>
                    <path d="M110.185971,11.1422184 L107.564732,11.1422184 L107.564732,5.61692567 L110.135774,5.61692567 C113.035099,5.61692567 114.311083,6.77643535 114.311083,8.3694395 C114.311083,10.068174 112.967836,11.1422184 110.185971,11.1422184 M112.618472,11.7854114 C114.636353,11.1228344 115.634251,9.98358978 115.634251,8.34917451 C115.634251,6.46453077 114.265907,4.70588235 110.393782,4.70588235 L106.334928,4.70588235 L106.334928,18.8235294 L107.564732,18.8235294 L107.564732,12.0559049 L109.699068,12.0559049 C111.598487,12.0559049 112.199836,12.2823441 114.101264,14.9520359 L116.86004,18.8235294 L118.296651,18.8235294 L114.725702,13.9379054 C113.986816,12.9431589 113.36037,12.1352027 112.618472,11.7854114" id="Fill-6"></path>
                    <polygon id="Fill-8" points="123.794431 12.0594292 129.669523 12.0594292 129.669523 11.1466238 123.794431 11.1466238 123.794431 5.61692567 129.819998 5.61692567 129.819998 4.70588235 122.794258 4.70588235 122.794258 18.8235294 129.971292 18.8235294 129.971292 17.9107239 123.794431 17.9107239"></polygon>
                    <path d="M136.11551,8.31723763 C136.11551,6.82273573 137.279395,5.69391895 138.821427,5.69391895 C139.701702,5.69391895 140.379731,5.93685061 141.693945,6.74290306 L141.693945,5.57116549 C140.698211,4.98830116 139.72185,4.70588235 138.727665,4.70588235 C136.696678,4.70588235 135.043062,6.3214209 135.043062,8.35586632 C135.043062,12.8934523 141.149972,11.1800543 141.149972,15.0909968 C141.149972,16.643871 139.96749,17.8353521 138.445605,17.8353521 C137.449096,17.8353521 136.640886,17.469667 135.215088,16.363169 L135.215088,17.6113056 C136.340229,18.4199332 137.449096,18.8216718 138.500623,18.8216718 C140.586627,18.8216718 142.220096,17.1700799 142.220096,15.0506512 C142.220096,10.2315049 136.11551,11.9878237 136.11551,8.31723763" id="Fill-10"></path>
                    <path d="M148.075567,8.31723763 C148.075567,6.82273573 149.241651,5.69391895 150.780417,5.69391895 C151.664472,5.69391895 152.340103,5.93685061 153.655724,6.74290306 L153.655724,5.57116549 C152.660872,4.98830116 151.684616,4.70588235 150.68744,4.70588235 C148.657447,4.70588235 147.004785,6.3214209 147.004785,8.35586632 C147.004785,12.8934523 153.111035,11.1800543 153.111035,15.0909968 C153.111035,16.643871 151.92713,17.8353521 150.40696,17.8353521 C149.409784,17.8353521 148.600886,17.469667 147.172918,16.363169 L147.172918,17.6113056 C148.301036,18.4199332 149.409784,18.8216718 150.461972,18.8216718 C152.549301,18.8216718 154.181818,17.1700799 154.181818,15.0506512 C154.181818,10.2315049 148.075567,11.9878237 148.075567,8.31723763" id="Fill-12"></path>
                    <path d="M26.3651478,28.4551341 L19.9932597,15.0926812 L13.6378479,28.4551341 L11.6666667,28.4551341 L19.9827747,11.0638298 L28.3333333,28.4551341 L26.3651478,28.4551341 Z M0,40 L40,40 L40,0 L0,0 L0,40 Z" id="Fill-14"></path>
                </g>
            </g>
        </g>
    </g>
</svg>