<svg id="black_logo" class="logo" xmlns="http://www.w3.org/2000/svg" viewBox="0 0 318.44 127.6"><defs><style>.cls-1{fill:#1d1d1b;}</style></defs><g id="Layer_2" data-name="Layer 2"><g id="Layer_1-2" data-name="Layer 1"><path class="cls-1" d="M66.55,114H56.25v13.15H53.88V100.78h2.37V112h10.3V100.78h2.37v26.38H66.55Z"></path><path class="cls-1" d="M78.86,107.1c4.32,0,6.76,3.43,6.76,10.23s-2.44,10.27-6.76,10.27-6.76-3.43-6.76-10.27S74.54,107.1,78.86,107.1Zm0,18.66c2.47,0,4.39-2.15,4.39-8.43S81.33,109,78.86,109s-4.4,2.14-4.4,8.38S76.38,125.76,78.86,125.76Z"></path><path class="cls-1" d="M89.87,109.39h-2.7v-1.85h2.7v-5.43h2.21v5.43h3.48v1.85H92.08v14.08c0,1.55.67,2.06,2.11,2.06a4.55,4.55,0,0,0,1.37-.22v1.85a3.7,3.7,0,0,1-1.56.22c-3,0-4.13-.81-4.13-3.43Z"></path><path class="cls-1" d="M110,120.66c-.33,4.17-2.62,6.94-6.32,6.94-4.14,0-6.57-2.88-6.57-10.27,0-6.8,2.43-10.23,6.76-10.23s6.31,3,6.31,9.53v.81H99.51v.93c0,5.65,2,7.39,4.17,7.39s3.77-1.67,4.14-5.1Zm-2.18-5.06c-.07-4.88-1.44-6.65-4.18-6.65s-4.1,1.77-4.17,6.65Z"></path><path class="cls-1" d="M113.84,100.78h2.22v26.38h-2.22Z"></path><path class="cls-1" d="M123.6,117.41c-2.77-1.07-3.77-2.7-3.77-4.66,0-4,2.51-5.65,5.84-5.65,3.69,0,5.39,1.88,5.39,5.47v.55h-2.22v-.55c0-2.55-1.18-3.62-3.21-3.62-2.59,0-3.58,1.36-3.58,3.32,0,1.37.44,2.44,2.66,3.29l3.21,1.22a5,5,0,0,1,3.66,5c0,3.36-1.92,5.83-6.06,5.83s-6-1.66-6-6.09v-.63h2.21v.52c0,2.88,1.26,4.36,3.77,4.36s3.88-1.33,3.88-3.51c0-1.74-.7-2.85-2.66-3.63Z"></path><path class="cls-1" d="M156.81,124a8,8,0,0,1-7,3.65c-4.54,0-7.39-3.1-7.39-7,0-2.77,1.41-5,3.81-6.8l2.18-1.66c-1.89-2.48-3-4.43-3-6.5,0-3.18,2.47-4.88,5.39-4.88a4.68,4.68,0,0,1,5.06,4.88c0,2.14-.88,4.14-4.65,6.8l5.69,8a14.29,14.29,0,0,0,1-5H160a14.26,14.26,0,0,1-1.85,6.83l3.47,4.88h-2.51Zm-7.31-10.31c-3.74,2.58-4.73,4.65-4.73,6.72a5.18,5.18,0,0,0,5.35,5.25,6.47,6.47,0,0,0,5.55-3.33Zm.55-2.7c2.92-2.22,3.55-3.91,3.55-5.36a3,3,0,0,0-6,0C147.57,107,148.57,109,150.05,110.94Z"></path><path class="cls-1" d="M172.36,100.78h7.87c4.4,0,6.84,2.51,6.84,6.61,0,3.18-1.26,6-4.77,6.69v.08c3.29.29,4.4,2.18,4.51,6.24l.08,2.88a5.79,5.79,0,0,0,1.1,3.88h-2.77a8,8,0,0,1-.7-3.69l-.07-2.22c-.15-4.66-1-6.13-5.25-6.13h-4.47v12h-2.37Zm2.37,12.34h4.06c3.73,0,5.91-1.7,5.91-5.17,0-3.22-1.36-5.17-5.65-5.17h-4.32Z"></path><path class="cls-1" d="M202.62,120.66c-.33,4.17-2.62,6.94-6.32,6.94-4.13,0-6.57-2.88-6.57-10.27,0-6.8,2.44-10.23,6.76-10.23s6.32,3,6.32,9.53v.81H192.09v.93c0,5.65,2,7.39,4.18,7.39s3.77-1.67,4.14-5.1Zm-2.18-5.06c-.07-4.88-1.44-6.65-4.17-6.65s-4.1,1.77-4.18,6.65Z"></path><path class="cls-1" d="M209.2,117.41c-2.77-1.07-3.77-2.7-3.77-4.66,0-4,2.51-5.65,5.84-5.65,3.69,0,5.39,1.88,5.39,5.47v.55h-2.21v-.55c0-2.55-1.19-3.62-3.22-3.62-2.59,0-3.58,1.36-3.58,3.32,0,1.37.44,2.44,2.66,3.29l3.21,1.22a5,5,0,0,1,3.66,5c0,3.36-1.92,5.83-6.06,5.83s-6-1.66-6-6.09v-.63h2.22v.52c0,2.88,1.25,4.36,3.76,4.36s3.88-1.33,3.88-3.51c0-1.74-.7-2.85-2.66-3.63Z"></path><path class="cls-1" d="M226,107.1c4.32,0,6.76,3.43,6.76,10.23S230.33,127.6,226,127.6s-6.76-3.43-6.76-10.27S221.69,107.1,226,107.1Zm0,18.66c2.47,0,4.4-2.15,4.4-8.43S228.48,109,226,109s-4.4,2.14-4.4,8.38S223.53,125.76,226,125.76Z"></path><path class="cls-1" d="M236,107.54h2.22v3.07h.07a5.19,5.19,0,0,1,4.95-3.51,3,3,0,0,1,.78.11v2.22a5.12,5.12,0,0,0-1.07-.11c-2.44,0-4.73,1.77-4.73,5.58v12.26H236Z"></path><path class="cls-1" d="M247.29,109.39h-2.7v-1.85h2.7v-5.43h2.22v5.43H253v1.85h-3.47v14.08c0,1.55.66,2.06,2.1,2.06a4.55,4.55,0,0,0,1.37-.22v1.85a3.65,3.65,0,0,1-1.55.22c-3,0-4.14-.81-4.14-3.43Z"></path><path class="cls-1" d="M258.67,117.41c-2.77-1.07-3.77-2.7-3.77-4.66,0-4,2.51-5.65,5.84-5.65,3.69,0,5.39,1.88,5.39,5.47v.55h-2.22v-.55c0-2.55-1.18-3.62-3.21-3.62-2.59,0-3.58,1.36-3.58,3.32,0,1.37.44,2.44,2.65,3.29l3.22,1.22a5,5,0,0,1,3.66,5c0,3.36-1.92,5.83-6.06,5.83s-6-1.66-6-6.09v-.63h2.21v.52c0,2.88,1.26,4.36,3.77,4.36s3.88-1.33,3.88-3.51c0-1.74-.7-2.85-2.66-3.63Z"></path><path class="cls-1" d="M318.44,5.66V3.11h-36V5.66H288v49.1L254.46,3.11H238.85V5.66h5.57V71.49h-9.67L210.42,0,185.29,71.49H176V5.66h5.6V3.11H166.82L148.19,57.05,128.67,3.11H114.18V5.66h5.59V71.49H108.68c-3.14,0-5.88-2.81-5.88-7.56V53.55c0-7.95-2.58-14.61-10.54-16.87A16.78,16.78,0,0,0,104,20.87C104,10.78,96.5,3.11,82,3.11H60.09V5.66h5.58V71.49H54.41L30.07,0,5,71.49H0V74H14V71.49H7.83l7-20H37.65l6.68,20H35.76V74H83.42V71.49H74.79V37.94h5.79c8.45,0,12.7,3.46,12.7,11.67V55.7C93.28,70.15,102.81,74,108,74h20.4V71.49h-6.08V13.19l22.9,61.61,21.64-63.44V71.49h-5.59V74h33.11V71.49h-6.21l7-20H218l6.68,20h-8.57V74h36.47V71.49H247V9.3l43.6,67.06V5.66h13.16V71.49h-5.59V74h20.3V71.49h-5.59V5.66ZM15.68,49l10.7-31.1L36.84,49Zm64.9-13.64H74.79V5.66H79.6c8.51,0,14.22,5.48,14.22,15.6C93.82,26.83,89.46,35.39,80.58,35.39ZM196,49l10.71-31.1L217.18,49Z"></path></g></g></svg>