<svg width="117" height="48" viewBox="0 0 117 48" fill="none" xmlns="http://www.w3.org/2000/svg">
<g id="Logo Type=EN, Color=Black" clip-path="url(#clip0_3278_2486)">
<path id="Vector" d="M45.6624 17.594C45.8325 16.7247 45.8325 15.5039 45.6964 14.5061L44.5777 6.22135L38.4813 17.5826H37.3172L31.115 5.70733L29.9131 14.6875C29.7809 15.7231 29.7431 17.0346 29.8527 17.5902H27.6719C28.0914 16.6906 28.1972 16.3014 28.3938 14.8236L30.3667 0.0078125H31.372L38.606 13.8333L45.8325 0.0078125H46.5884L48.6256 14.7933C48.8297 16.2673 48.9809 16.6906 49.3853 17.5902H45.6624V17.594Z" fill="#54565A"/>
<path id="Vector_2" d="M26.7336 15.8404L26.469 17.5941H13.8945C14.4123 16.3809 14.3821 15.6968 14.3821 14.8237V2.77834C14.3821 1.9355 14.4161 1.18715 13.8945 0.0117188H17.6627H26.1667L26.1893 1.79566C25.9588 1.70117 25.7736 1.6218 25.6035 1.54621C25.15 1.37613 24.5717 1.21739 23.9708 1.22117H17.2432V8.10747H25.1348L24.7493 9.46055H17.2432V16.3506H24.36C25.5619 16.3695 26.7525 15.693 26.7525 15.693L26.7185 15.8442H26.7336V15.8404Z" fill="#54565A"/>
<path id="Vector_3" d="M90.2704 8.53587V1.03727C95.7885 0.81806 96.3555 3.562 96.4159 4.82438C96.4688 6.13209 95.9208 7.6817 94.2994 8.30154L94.3069 8.29398C94.3069 8.29398 94.2805 8.30154 94.2276 8.328C93.3583 8.70217 90.2704 8.53587 90.2704 8.53587ZM94.0273 9.37115L94.7643 9.29934C97.2399 8.9365 99.3488 7.4965 99.3488 4.82438C99.3488 -0.232641 93.2638 0.00168561 90.6899 0.00168561H86.918C87.4358 1.17712 87.4055 1.92547 87.4055 2.77209V14.825C87.4055 15.6981 87.4395 16.3822 86.918 17.5954H90.7617C90.2704 16.3822 90.2704 15.6981 90.2704 14.825V9.40895C90.637 9.43162 91.2115 9.54879 92.0166 10.505C94.8474 13.8763 97.1114 16.0042 98.8575 17.6067H102.406C102.059 17.2665 94.0273 9.37115 94.0273 9.37115Z" fill="#54565A"/>
<path id="Vector_4" d="M74.1213 9.92529L76.457 4.67174L78.8381 9.92529H74.1213ZM84.0954 14.7215L77.4321 0.0078125H76.6687L69.8995 15.1411C69.3855 16.2674 69.1436 16.6831 68.418 17.5902H68.4293H70.4514H70.697L73.5619 11.1499H79.4051L82.3077 17.5902H86.1666C85.1386 16.6075 84.806 16.1577 84.0954 14.7215Z" fill="#54565A"/>
<path id="Vector_5" d="M55.8555 9.92529L58.1913 4.67174L60.5686 9.92529H55.8555ZM65.8259 14.7215L59.1626 0.0078125H58.3954L51.63 15.1411C51.116 16.2674 50.8741 16.6831 50.1484 17.5902H50.1598H52.1818H52.4275L55.2924 11.1499H61.1317L64.0344 17.5902H67.8933C66.8729 16.6075 66.5365 16.1577 65.8259 14.7215Z" fill="#54565A"/>
<path id="Vector_6" d="M116.3 28.0156H0V28.3936H116.3V28.0156Z" fill="#54565A"/>
<path id="Vector_7" d="M98.8011 46.0007C98.7936 46.6205 98.7633 47.1459 98.7142 47.5805C98.907 47.5616 99.1111 47.554 99.3303 47.554C99.5457 47.554 99.7536 47.5616 99.9463 47.5805C99.9312 47.4029 99.9161 47.1723 99.901 46.8851C99.8896 46.5978 99.8783 46.2841 99.8707 45.944C99.8632 45.6038 99.8556 45.2599 99.8519 44.9084C99.8481 44.5569 99.8443 44.2281 99.8443 43.9181C99.9766 43.6611 100.135 43.3663 100.321 43.0451C100.506 42.7238 100.717 42.361 100.959 41.9603C101.201 41.5597 101.481 41.1099 101.798 40.6186C102.116 40.1273 102.475 39.5717 102.879 38.9632C102.671 39.0047 102.505 39.0274 102.388 39.0274C102.271 39.0274 102.108 39.0085 101.9 38.9632C101.734 39.3222 101.553 39.6926 101.36 40.0744C101.167 40.4561 100.967 40.834 100.759 41.212C100.551 41.5899 100.339 41.9566 100.132 42.3156C99.9237 42.6747 99.7196 43.0073 99.5306 43.3059C99.0959 42.5462 98.684 41.8129 98.2947 41.1099C97.9054 40.407 97.5237 39.6926 97.1457 38.9632C97.0285 38.9821 96.9152 38.9934 96.8018 39.0085C96.6884 39.0199 96.575 39.0274 96.4578 39.0274C96.3407 39.0274 96.2235 39.0199 96.1139 39.0085C96.0005 38.9972 95.8871 38.9821 95.77 38.9632C95.8531 39.0955 95.9741 39.2958 96.1328 39.5603C96.2915 39.8249 96.4692 40.1197 96.6657 40.4523C96.8622 40.7849 97.0701 41.1288 97.2855 41.4955C97.5048 41.8583 97.7089 42.206 97.9054 42.5386C98.1019 42.8674 98.2833 43.1698 98.4459 43.4419C98.6084 43.714 98.7331 43.9219 98.8163 44.0618C98.8163 44.7345 98.8125 45.3808 98.8011 46.0007ZM89.5375 42.2098V44.3679C89.5375 44.9197 89.5262 45.464 89.5073 46.0007C89.4846 46.5373 89.4619 47.0627 89.4392 47.5805C89.632 47.5616 89.8361 47.554 90.0553 47.554C90.2745 47.554 90.4786 47.5616 90.6714 47.5805C90.6449 47.0627 90.6222 46.5336 90.6033 46.0007C90.5807 45.464 90.5731 44.9197 90.5731 44.3679V42.2098C90.5731 41.3405 90.5844 40.475 90.6109 39.6133C90.8301 39.6133 91.0569 39.617 91.295 39.6208C91.5331 39.6246 91.7712 39.6322 92.0093 39.6473C92.2474 39.6586 92.478 39.6737 92.701 39.6926C92.924 39.7077 93.1205 39.7304 93.2981 39.7569C93.2566 39.6057 93.2339 39.4772 93.2339 39.3676C93.2339 39.2655 93.2566 39.1333 93.2981 38.967C92.7463 38.9859 92.2059 38.9972 91.6805 39.0123C91.1514 39.0236 90.6147 39.0312 90.0629 39.0312C89.5111 39.0312 88.9706 39.0236 88.4452 39.0123C87.9161 39.001 87.3794 38.9859 86.8276 38.967C86.8692 39.1333 86.8918 39.2655 86.8918 39.3562C86.8918 39.4734 86.8692 39.6057 86.8276 39.7569C87.0015 39.7304 87.2018 39.7115 87.4248 39.6926C87.6478 39.6775 87.8783 39.6624 88.1164 39.6473C88.3545 39.6359 88.5926 39.6284 88.8307 39.6208C89.0689 39.617 89.2956 39.6133 89.5148 39.6133C89.5262 40.475 89.5375 41.3405 89.5375 42.2098ZM82.8137 42.2098V44.3679C82.8137 44.9197 82.8024 45.464 82.7835 46.0007C82.7608 46.5373 82.7382 47.0627 82.7155 47.5805C82.9082 47.5616 83.1123 47.554 83.3315 47.554C83.5507 47.554 83.7548 47.5616 83.9476 47.5805C83.9211 47.0627 83.8985 46.5336 83.8796 46.0007C83.8569 45.464 83.8493 44.9197 83.8493 44.3679V42.2098C83.8493 41.658 83.8607 41.1175 83.8796 40.5846C83.8985 40.0517 83.9249 39.5112 83.9476 38.9594C83.838 38.9783 83.7322 38.9896 83.6339 39.0048C83.5319 39.0161 83.4336 39.0236 83.3315 39.0236C83.2295 39.0236 83.1312 39.0161 83.0292 39.0048C82.9271 38.9934 82.8251 38.9783 82.7155 38.9594C82.7419 39.5112 82.7646 40.0517 82.7835 40.5846C82.8062 41.1175 82.8137 41.658 82.8137 42.2098ZM75.198 42.2098V44.3679C75.198 44.9197 75.1867 45.464 75.1678 46.0007C75.1489 46.5373 75.1224 47.0627 75.0997 47.5805C75.5004 47.5616 75.8896 47.554 76.26 47.554H77.4204H78.5731C78.9586 47.554 79.3441 47.5616 79.7296 47.5805C79.6881 47.4482 79.6654 47.3348 79.6654 47.2403C79.6654 47.1383 79.6843 47.0136 79.7296 46.8624C79.1022 46.9455 78.5164 46.9947 77.9722 47.006C77.4279 47.0173 76.861 47.0249 76.2638 47.0249C76.2563 46.4126 76.2487 45.721 76.2374 44.9499C76.2298 44.1751 76.226 43.2605 76.226 42.2098C76.226 41.658 76.2374 41.1175 76.2563 40.5846C76.2789 40.0517 76.3016 39.5112 76.3243 38.9594C76.2147 38.9783 76.1126 38.9896 76.0106 39.0048C75.9085 39.0161 75.8103 39.0236 75.7082 39.0236C75.6062 39.0236 75.5079 39.0161 75.4059 39.0048C75.3038 38.9934 75.2018 38.9783 75.0922 38.9594C75.1186 39.5112 75.1413 40.0517 75.1602 40.5846C75.1867 41.1175 75.198 41.658 75.198 42.2098ZM71.8229 46.7036C71.6528 46.3181 71.46 45.8835 71.2446 45.3921C71.0292 44.9046 70.8024 44.3755 70.5605 43.8047C70.3186 43.234 70.0767 42.6633 69.8348 42.0851C69.593 41.5068 69.3548 40.9361 69.1205 40.3729C68.8862 39.8098 68.667 39.2844 68.4667 38.7969H68.2285C67.5747 40.2936 66.9284 41.7676 66.2821 43.2151C65.6358 44.6627 64.9781 46.1178 64.2978 47.5805C64.4415 47.5616 64.5964 47.554 64.7627 47.554C64.929 47.554 65.084 47.5616 65.2276 47.5805C65.3372 47.195 65.4997 46.7074 65.7189 46.1178C65.9382 45.5282 66.18 44.9084 66.4446 44.2545C66.7054 44.247 66.9586 44.2394 67.2119 44.2356C67.4613 44.2318 67.7183 44.2281 67.9753 44.2281C68.2512 44.2281 68.5271 44.2318 68.803 44.2356C69.0789 44.2394 69.3511 44.247 69.6194 44.2545C69.729 44.5304 69.8462 44.8214 69.9709 45.1276C70.0956 45.4337 70.2204 45.7323 70.3413 46.0309C70.4622 46.3295 70.5719 46.6129 70.6739 46.8851C70.7759 47.1572 70.8553 47.3877 70.912 47.5805C71.0292 47.5616 71.1388 47.554 71.2446 47.554H71.5772H71.9098C72.0156 47.554 72.1252 47.5616 72.2424 47.5805C72.1366 47.3802 71.9967 47.0892 71.8229 46.7036ZM68.0547 40.4939L69.4493 43.68C69.215 43.6876 68.9807 43.6951 68.7463 43.6989C68.512 43.7027 68.2777 43.7065 68.0433 43.7065C67.8241 43.7065 67.6011 43.7027 67.3668 43.6951C67.1325 43.6876 66.9057 43.6838 66.6903 43.6838L68.0547 40.4939ZM59.5318 42.2098V44.3679C59.5318 44.9197 59.5205 45.464 59.5016 46.0007C59.4827 46.5373 59.4563 47.0627 59.4336 47.5805C59.6263 47.5616 59.8304 47.554 60.0496 47.554C60.2689 47.554 60.473 47.5616 60.6657 47.5805C60.6393 47.0627 60.6166 46.5336 60.5977 46.0007C60.575 45.464 60.5674 44.9197 60.5674 44.3679V42.2098C60.5674 41.3405 60.5788 40.475 60.6052 39.6133C60.8245 39.6133 61.0512 39.617 61.2893 39.6208C61.5274 39.6246 61.7656 39.6322 62.0037 39.6473C62.2418 39.6586 62.4723 39.6737 62.6953 39.6926C62.9183 39.7077 63.1148 39.7304 63.2925 39.7569C63.2509 39.6057 63.2282 39.4772 63.2282 39.3676C63.2282 39.2655 63.2471 39.1333 63.2925 38.967C62.7407 38.9859 62.2002 38.9972 61.6748 39.0123C61.1457 39.0236 60.609 39.0312 60.0572 39.0312C59.5054 39.0312 58.9649 39.0236 58.4396 39.0123C57.9142 39.001 57.3737 38.9859 56.8219 38.967C56.8635 39.1333 56.8862 39.2655 56.8862 39.3562C56.8862 39.4734 56.8635 39.6057 56.8219 39.7569C56.9958 39.7304 57.1961 39.7115 57.4191 39.6926C57.6421 39.6775 57.8689 39.6624 58.1107 39.6473C58.3489 39.6359 58.587 39.6284 58.8251 39.6208C59.0632 39.617 59.29 39.6133 59.5092 39.6133C59.5205 40.475 59.5318 41.3405 59.5318 42.2098ZM52.8081 42.2098V44.3679C52.8081 44.9197 52.7967 45.464 52.7778 46.0007C52.7552 46.5373 52.7325 47.0627 52.7098 47.5805C52.9026 47.5616 53.1067 47.554 53.3259 47.554C53.5451 47.554 53.7492 47.5616 53.9419 47.5805C53.9155 47.0627 53.8928 46.5336 53.8739 46.0007C53.855 45.464 53.8437 44.9197 53.8437 44.3679V42.2098C53.8437 41.658 53.855 41.1175 53.8739 40.5846C53.8928 40.0517 53.9193 39.5112 53.9419 38.9594C53.8323 38.9783 53.7265 38.9896 53.6282 39.0048C53.5262 39.0161 53.4279 39.0236 53.3259 39.0236C53.2238 39.0236 53.1255 39.0161 53.0235 39.0048C52.9215 38.9934 52.8194 38.9783 52.7098 38.9594C52.7363 39.5112 52.7589 40.0517 52.7778 40.5846C52.7967 41.1175 52.8081 41.658 52.8081 42.2098ZM44.4251 44.3717C44.4251 44.9235 44.4137 45.4677 44.3948 46.0044C44.3722 46.5411 44.3495 47.0665 44.3268 47.5843C44.5196 47.5654 44.7237 47.5578 44.9429 47.5578C45.1621 47.5578 45.3662 47.5654 45.5589 47.5843C45.5325 47.0665 45.5098 46.5373 45.4909 46.0044C45.472 45.4677 45.4607 44.9235 45.4607 44.3717V43.68C45.627 43.6951 45.7895 43.7065 45.9482 43.7103C46.107 43.714 46.2846 43.7178 46.4774 43.7178C46.7797 43.7178 47.1237 43.6838 47.513 43.6158C47.9022 43.5477 48.2689 43.4192 48.6166 43.2265C48.9643 43.0337 49.2553 42.7654 49.4972 42.4252C49.7353 42.0813 49.8563 41.6353 49.8563 41.0835C49.8563 40.732 49.8071 40.4372 49.7051 40.1991C49.603 39.961 49.4745 39.7607 49.3082 39.6019C49.1457 39.4432 48.9643 39.3222 48.764 39.2391C48.5637 39.1559 48.3596 39.0917 48.1555 39.0501C47.9514 39.0085 47.7548 38.9821 47.5734 38.9745C47.3882 38.967 47.2333 38.9632 47.1085 38.9632C47.0178 38.9632 46.9045 38.967 46.7684 38.9745C46.6361 38.9821 46.4925 38.9896 46.3489 38.9934C46.2015 38.9972 46.0578 39.0047 45.9142 39.0123C45.7706 39.0199 45.6497 39.0236 45.5514 39.0236C45.3511 39.0236 45.147 39.0161 44.9429 39.0048C44.7388 38.9934 44.5347 38.9783 44.3344 38.9594C44.3608 39.5112 44.3835 40.0517 44.4024 40.5846C44.4213 41.1175 44.4326 41.658 44.4326 42.2098V44.3717H44.4251ZM45.4531 39.4243H46.5832C46.9082 39.4243 47.203 39.447 47.4638 39.4923C47.7208 39.5377 47.9438 39.6246 48.1215 39.7493C48.3029 39.874 48.4427 40.0517 48.541 40.2747C48.643 40.5014 48.6922 40.7925 48.6922 41.1515C48.6922 41.5786 48.6204 41.9263 48.473 42.1984C48.3256 42.4706 48.1366 42.6822 47.9098 42.8372C47.6793 42.9922 47.426 43.098 47.1501 43.1585C46.8742 43.2151 46.6059 43.2454 46.3489 43.2454C46.0389 43.2454 45.7441 43.2114 45.4569 43.1433V39.4243H45.4531ZM36.3974 45.9515H36.2462C36.2197 46.1934 36.1933 46.3937 36.163 46.5487C36.1328 46.7036 36.0799 46.8775 36.0081 47.0703C36.2235 47.2479 36.4956 47.4029 36.8169 47.5389C37.1382 47.675 37.5577 47.7468 38.0793 47.7468C38.563 47.7468 38.9977 47.6788 39.3794 47.5389C39.7611 47.4029 40.0824 47.2025 40.347 46.9493C40.6115 46.6923 40.8119 46.3937 40.9479 46.0536C41.084 45.7096 41.1558 45.3468 41.1558 44.9613C41.1558 44.5002 41.0575 44.1336 40.861 43.8577C40.6645 43.5818 40.4188 43.355 40.1278 43.1811C39.833 43.0073 39.5193 42.8561 39.1791 42.7351C38.8389 42.6142 38.5252 42.4744 38.2304 42.3194C37.9356 42.1644 37.6937 41.9755 37.4972 41.7487C37.3007 41.5219 37.2024 41.212 37.2024 40.8189C37.2024 40.5921 37.2402 40.3843 37.3234 40.1915C37.4027 39.9988 37.5161 39.8325 37.6635 39.6964C37.8109 39.5603 37.981 39.4507 38.1775 39.3751C38.3741 39.2996 38.5895 39.2618 38.8238 39.2618C39.0582 39.2618 39.2585 39.3033 39.4248 39.3827C39.5911 39.4621 39.7385 39.5603 39.8594 39.6775C39.9804 39.7947 40.0786 39.9232 40.1467 40.0592C40.2185 40.1953 40.2752 40.3238 40.3167 40.441H40.4679C40.5171 40.1991 40.57 39.9988 40.6191 39.84C40.6682 39.6813 40.7325 39.5301 40.8081 39.3865C40.5586 39.1862 40.2865 39.0388 39.9917 38.9405C39.6969 38.846 39.353 38.7969 38.9485 38.7969C38.529 38.7969 38.1548 38.8573 37.8185 38.9745C37.4821 39.0917 37.1986 39.2542 36.9605 39.4621C36.7224 39.6699 36.541 39.9194 36.4163 40.2066C36.2915 40.4939 36.2273 40.8151 36.2273 41.1666C36.2273 41.6618 36.3256 42.0548 36.5221 42.3459C36.7186 42.6407 36.9643 42.8788 37.2553 43.0677C37.5501 43.2567 37.8638 43.4117 38.204 43.5364C38.5441 43.6611 38.8578 43.801 39.1526 43.9522C39.4437 44.1033 39.6893 44.2923 39.8859 44.5153C40.0824 44.7421 40.1807 45.0482 40.1807 45.4299C40.1807 45.6794 40.1391 45.9175 40.056 46.1405C39.9728 46.3635 39.8519 46.5562 39.6969 46.7188C39.5419 46.8813 39.353 47.0136 39.1337 47.1081C38.9108 47.2025 38.6651 47.2517 38.3854 47.2517C38.1171 47.2517 37.8752 47.2139 37.656 47.1307C37.4367 47.0514 37.2478 46.9493 37.0852 46.8246C36.9227 46.6999 36.7829 46.56 36.6733 46.4051C36.5523 46.2539 36.4654 46.1027 36.3974 45.9515ZM31.9867 45.0898C31.8128 45.5962 31.5671 46.0158 31.2534 46.3446C30.9397 46.6734 30.5731 46.9191 30.1498 47.0778C29.7265 47.2366 29.2692 47.3159 28.7741 47.3159C28.2903 47.3159 27.8367 47.2366 27.4134 47.0778C26.9901 46.9191 26.6235 46.6734 26.3098 46.3446C25.9961 46.0158 25.7504 45.5962 25.5766 45.0898C25.4027 44.5833 25.312 43.9824 25.312 43.287C25.312 42.5915 25.3989 41.9944 25.5766 41.4879C25.7542 40.9814 25.9961 40.5619 26.3098 40.2331C26.6235 39.9043 26.9901 39.6586 27.4134 39.4999C27.8367 39.3411 28.2903 39.2618 28.7741 39.2618C29.2692 39.2618 29.7265 39.3411 30.1498 39.4999C30.5731 39.6586 30.9397 39.9043 31.2534 40.2331C31.5671 40.5619 31.8128 40.9814 31.9867 41.4879C32.1643 41.9944 32.2512 42.5953 32.2512 43.287C32.2512 43.9862 32.1605 44.5871 31.9867 45.0898ZM24.4276 45.1918C24.6582 45.7474 24.9794 46.2199 25.3952 46.6016C25.8071 46.9871 26.306 47.2744 26.8805 47.4633C27.4588 47.6523 28.09 47.7468 28.7741 47.7468C29.4695 47.7468 30.1045 47.6523 30.6827 47.4633C31.261 47.2744 31.7561 46.9871 32.1681 46.6016C32.5838 46.2161 32.9051 45.7474 33.1356 45.1918C33.3662 44.6362 33.4796 44.0013 33.4796 43.2907C33.4796 42.5802 33.3662 41.9452 33.1356 41.3896C32.9051 40.834 32.5838 40.3616 32.1681 39.9799C31.7561 39.5944 31.2572 39.3033 30.6827 39.103C30.1045 38.9027 29.4695 38.8007 28.7741 38.8007C28.0862 38.8007 27.455 38.9027 26.8805 39.103C26.3023 39.3033 25.8071 39.5981 25.3952 39.9799C24.9794 40.3654 24.6582 40.834 24.4276 41.3896C24.1971 41.9452 24.0837 42.5802 24.0837 43.2907C24.0799 44.0013 24.1971 44.6362 24.4276 45.1918ZM19.7939 42.2098V42.6482C19.3404 42.6558 18.9057 42.6633 18.4824 42.6747C18.0591 42.6822 17.6245 42.686 17.1709 42.686C16.7174 42.686 16.2827 42.6822 15.8594 42.6747C15.4361 42.6671 15.0015 42.6596 14.5479 42.6482V42.2098C14.5479 41.658 14.5593 41.1175 14.5782 40.5846C14.5971 40.0517 14.6235 39.5112 14.6462 38.9594C14.5366 38.9783 14.4345 38.9896 14.3325 39.0048C14.2304 39.0161 14.1322 39.0236 14.0301 39.0236C13.9281 39.0236 13.8298 39.0161 13.7278 39.0048C13.6257 38.9934 13.5237 38.9783 13.4141 38.9594C13.4405 39.5112 13.4632 40.0517 13.4821 40.5846C13.501 41.1175 13.5123 41.658 13.5123 42.2098V44.3679C13.5123 44.9197 13.501 45.464 13.4821 46.0007C13.4632 46.5373 13.4367 47.0627 13.4141 47.5805C13.6068 47.5616 13.8109 47.554 14.0301 47.554C14.2493 47.554 14.4534 47.5616 14.6462 47.5805C14.6197 47.0627 14.5971 46.5336 14.5782 46.0007C14.5555 45.464 14.5479 44.9197 14.5479 44.3679V43.2378C15.0015 43.2303 15.4361 43.2227 15.8594 43.2189C16.2827 43.2151 16.7211 43.2114 17.1709 43.2114C17.6207 43.2114 18.0591 43.2151 18.4824 43.2189C18.9057 43.2227 19.3404 43.2303 19.7939 43.2378V44.3679C19.7939 44.9197 19.7826 45.464 19.7637 46.0007C19.7448 46.5373 19.7183 47.0627 19.6956 47.5805C19.8884 47.5616 20.0925 47.554 20.3117 47.554C20.5309 47.554 20.735 47.5616 20.9278 47.5805C20.9013 47.0627 20.8786 46.5336 20.8597 46.0007C20.8408 45.464 20.8295 44.9197 20.8295 44.3679V42.2098C20.8295 41.658 20.8408 41.1175 20.8597 40.5846C20.8824 40.0517 20.9051 39.5112 20.9278 38.9594C20.8182 38.9783 20.7161 38.9896 20.6141 39.0048C20.512 39.0161 20.4137 39.0236 20.3117 39.0236C20.2097 39.0236 20.1114 39.0161 20.0093 39.0048C19.9073 38.9934 19.8052 38.9783 19.6956 38.9594C19.7221 39.5112 19.7448 40.0517 19.7637 40.5846C19.7863 41.1175 19.7939 41.658 19.7939 42.2098Z" fill="#54565A"/>
</g>
<defs>
<clipPath id="clip0_3278_2486">
<rect width="116.409" height="48" fill="white"/>
</clipPath>
</defs>
</svg>
