<svg xmlns="http://www.w3.org/2000/svg" xmlns:xlink="http://www.w3.org/1999/xlink" width="940" zoomAndPan="magnify" viewBox="0 0 705 299.999988" height="400" preserveAspectRatio="xMidYMid meet" version="1.0"><defs><g/></defs><g fill="#000000" fill-opacity="1"><g transform="translate(28.614456, 166.499986)"><g><path d="M 24.515625 -18.140625 L 33.671875 -18.140625 L 33.671875 -1.9375 C 33.671875 -1.9375 33.164062 -1.6875 32.15625 -1.1875 C 31.15625 -0.695312 29.765625 -0.207031 27.984375 0.28125 C 26.203125 0.78125 24.113281 1.03125 21.71875 1.03125 C 20.28125 1.03125 18.71875 0.867188 17.03125 0.546875 C 15.34375 0.222656 13.65625 -0.351562 11.96875 -1.1875 C 10.28125 -2.03125 8.734375 -3.160156 7.328125 -4.578125 C 5.929688 -6.003906 4.804688 -7.785156 3.953125 -9.921875 C 3.097656 -12.066406 2.671875 -14.65625 2.671875 -17.6875 C 2.671875 -20.988281 3.203125 -23.820312 4.265625 -26.1875 C 5.328125 -28.5625 6.773438 -30.492188 8.609375 -31.984375 C 10.453125 -33.484375 12.546875 -34.59375 14.890625 -35.3125 C 17.242188 -36.039062 19.691406 -36.40625 22.234375 -36.40625 C 24.398438 -36.40625 26.269531 -36.289062 27.84375 -36.0625 C 29.414062 -35.832031 30.617188 -35.601562 31.453125 -35.375 C 32.285156 -35.144531 32.703125 -35.03125 32.703125 -35.03125 L 32.703125 -33.09375 C 32.703125 -33.09375 31.800781 -33.320312 30 -33.78125 C 28.195312 -34.238281 25.609375 -34.46875 22.234375 -34.46875 C 21.054688 -34.46875 19.765625 -34.351562 18.359375 -34.125 C 16.960938 -33.894531 15.59375 -33.457031 14.25 -32.8125 C 12.90625 -32.164062 11.671875 -31.21875 10.546875 -29.96875 C 9.429688 -28.71875 8.53125 -27.097656 7.84375 -25.109375 C 7.164062 -23.117188 6.828125 -20.644531 6.828125 -17.6875 C 6.828125 -14.351562 7.210938 -11.59375 7.984375 -9.40625 C 8.765625 -7.226562 9.847656 -5.515625 11.234375 -4.265625 C 12.617188 -3.015625 14.25 -2.140625 16.125 -1.640625 C 18 -1.148438 20.035156 -0.90625 22.234375 -0.90625 C 23.679688 -0.90625 25.03125 -1.019531 26.28125 -1.25 C 27.53125 -1.476562 28.628906 -1.765625 29.578125 -2.109375 L 29.578125 -16.203125 L 24.515625 -16.203125 Z M 24.515625 -18.140625 "/></g></g></g><g fill="#000000" fill-opacity="1"><g transform="translate(63.987952, 166.499986)"><g><path d="M 7.671875 -1.875 L 21.890625 -1.875 L 21.890625 0.0625 L 3.578125 0.0625 L 3.578125 -35.71875 L 7.671875 -35.71875 Z M 7.671875 -1.875 "/></g></g></g><g fill="#000000" fill-opacity="1"><g transform="translate(82.470027, 166.499986)"><g><path d="M 22.234375 -36.40625 C 24.773438 -36.40625 27.21875 -36.039062 29.5625 -35.3125 C 31.914062 -34.59375 34.015625 -33.484375 35.859375 -31.984375 C 37.703125 -30.492188 39.160156 -28.5625 40.234375 -26.1875 C 41.316406 -23.820312 41.859375 -20.988281 41.859375 -17.6875 C 41.859375 -14.65625 41.410156 -12.066406 40.515625 -9.921875 C 39.628906 -7.785156 38.457031 -6.003906 37 -4.578125 C 35.539062 -3.160156 33.945312 -2.03125 32.21875 -1.1875 C 30.488281 -0.351562 28.753906 0.222656 27.015625 0.546875 C 25.273438 0.867188 23.679688 1.03125 22.234375 1.03125 C 20.835938 1.03125 19.265625 0.867188 17.515625 0.546875 C 15.773438 0.222656 14.03125 -0.351562 12.28125 -1.1875 C 10.539062 -2.03125 8.945312 -3.160156 7.5 -4.578125 C 6.0625 -6.003906 4.894531 -7.785156 4 -9.921875 C 3.113281 -12.066406 2.671875 -14.65625 2.671875 -17.6875 C 2.671875 -20.988281 3.203125 -23.820312 4.265625 -26.1875 C 5.328125 -28.5625 6.773438 -30.492188 8.609375 -31.984375 C 10.453125 -33.484375 12.546875 -34.59375 14.890625 -35.3125 C 17.242188 -36.039062 19.691406 -36.40625 22.234375 -36.40625 Z M 22.234375 -0.90625 C 23.523438 -0.90625 24.878906 -1.007812 26.296875 -1.21875 C 27.722656 -1.425781 29.109375 -1.851562 30.453125 -2.5 C 31.796875 -3.144531 33.007812 -4.082031 34.09375 -5.3125 C 35.175781 -6.550781 36.039062 -8.171875 36.6875 -10.171875 C 37.332031 -12.179688 37.65625 -14.6875 37.65625 -17.6875 C 37.65625 -20.644531 37.300781 -23.117188 36.59375 -25.109375 C 35.894531 -27.097656 34.976562 -28.71875 33.84375 -29.96875 C 32.707031 -31.21875 31.445312 -32.164062 30.0625 -32.8125 C 28.675781 -33.457031 27.300781 -33.894531 25.9375 -34.125 C 24.570312 -34.351562 23.335938 -34.46875 22.234375 -34.46875 C 21.140625 -34.46875 19.910156 -34.351562 18.546875 -34.125 C 17.179688 -33.894531 15.816406 -33.457031 14.453125 -32.8125 C 13.085938 -32.164062 11.820312 -31.21875 10.65625 -29.96875 C 9.5 -28.71875 8.570312 -27.097656 7.875 -25.109375 C 7.175781 -23.117188 6.828125 -20.644531 6.828125 -17.6875 C 6.828125 -14.6875 7.15625 -12.179688 7.8125 -10.171875 C 8.476562 -8.171875 9.351562 -6.550781 10.4375 -5.3125 C 11.519531 -4.082031 12.734375 -3.144531 14.078125 -2.5 C 15.421875 -1.851562 16.789062 -1.425781 18.1875 -1.21875 C 19.59375 -1.007812 20.941406 -0.90625 22.234375 -0.90625 Z M 22.234375 -0.90625 "/></g></g></g><g fill="#000000" fill-opacity="1"><g transform="translate(125.748604, 166.499986)"><g><path d="M 18.203125 -18.875 C 19.753906 -18.65625 21.203125 -18.203125 22.546875 -17.515625 C 23.890625 -16.835938 24.976562 -15.878906 25.8125 -14.640625 C 26.65625 -13.410156 27.078125 -11.828125 27.078125 -9.890625 C 27.078125 -7.960938 26.65625 -6.367188 25.8125 -5.109375 C 24.976562 -3.859375 23.9375 -2.882812 22.6875 -2.1875 C 21.4375 -1.488281 20.15625 -0.976562 18.84375 -0.65625 C 17.539062 -0.332031 16.378906 -0.128906 15.359375 -0.046875 C 14.335938 0.0234375 13.671875 0.0625 13.359375 0.0625 L 3.578125 0.0625 L 3.578125 -35.71875 C 3.578125 -35.71875 4.003906 -35.71875 4.859375 -35.71875 C 5.710938 -35.71875 6.742188 -35.71875 7.953125 -35.71875 C 9.171875 -35.71875 10.375 -35.71875 11.5625 -35.71875 C 12.757812 -35.71875 13.703125 -35.71875 14.390625 -35.71875 C 14.921875 -35.71875 15.640625 -35.675781 16.546875 -35.59375 C 17.460938 -35.519531 18.445312 -35.347656 19.5 -35.078125 C 20.5625 -34.816406 21.578125 -34.410156 22.546875 -33.859375 C 23.515625 -33.316406 24.300781 -32.578125 24.90625 -31.640625 C 25.519531 -30.710938 25.828125 -29.53125 25.828125 -28.09375 C 25.828125 -26.3125 25.445312 -24.8125 24.6875 -23.59375 C 23.925781 -22.382812 22.96875 -21.398438 21.8125 -20.640625 C 20.65625 -19.890625 19.453125 -19.300781 18.203125 -18.875 Z M 21.5625 -27.46875 C 21.5625 -29.320312 21.160156 -30.695312 20.359375 -31.59375 C 19.566406 -32.488281 18.46875 -33.078125 17.0625 -33.359375 C 15.65625 -33.640625 14.046875 -33.78125 12.234375 -33.78125 L 7.671875 -33.78125 L 7.671875 -19.734375 L 10.75 -19.734375 C 14.082031 -19.734375 16.71875 -20.320312 18.65625 -21.5 C 20.59375 -22.675781 21.5625 -24.664062 21.5625 -27.46875 Z M 10.75 -1.875 C 12.945312 -1.875 14.957031 -2.023438 16.78125 -2.328125 C 18.601562 -2.628906 20.0625 -3.300781 21.15625 -4.34375 C 22.257812 -5.394531 22.8125 -7.035156 22.8125 -9.265625 C 22.8125 -10.785156 22.503906 -12.1875 21.890625 -13.46875 C 21.285156 -14.757812 20.207031 -15.800781 18.65625 -16.59375 C 17.101562 -17.394531 14.882812 -17.796875 12 -17.796875 L 7.671875 -17.796875 L 7.671875 -1.875 Z M 10.75 -1.875 "/></g></g></g><g fill="#000000" fill-opacity="1"><g transform="translate(153.956342, 166.499986)"><g><path d="M 31 0.0625 L 25.25 -13.359375 L 10.515625 -13.359375 L 4.546875 0.0625 L 2.453125 0.0625 L 18.65625 -36.40625 L 19.796875 -36.40625 L 35.4375 0.0625 Z M 11.375 -15.296875 L 24.453125 -15.296875 L 18.03125 -30.25 Z M 11.375 -15.296875 "/></g></g></g><g fill="#000000" fill-opacity="1"><g transform="translate(190.18291, 166.499986)"><g><path d="M 7.671875 -1.875 L 21.890625 -1.875 L 21.890625 0.0625 L 3.578125 0.0625 L 3.578125 -35.71875 L 7.671875 -35.71875 Z M 7.671875 -1.875 "/></g></g></g><g fill="#000000" fill-opacity="1"><g transform="translate(213.21539, 166.499986)"><g/></g></g><g fill="#000000" fill-opacity="1"><g transform="translate(226.807273, 166.499986)"><g><path d="M 21.71875 -33.78125 L 7.671875 -33.78125 L 7.671875 -19.5625 L 20.1875 -19.5625 L 20.1875 -17.625 L 7.671875 -17.625 L 7.671875 -1.875 L 21.71875 -1.875 L 21.71875 0.0625 L 3.578125 0.0625 L 3.578125 -35.71875 L 21.71875 -35.71875 Z M 21.71875 -33.78125 "/></g></g></g><g fill="#000000" fill-opacity="1"><g transform="translate(250.010373, 166.499986)"><g><path d="M 7.671875 -1.875 L 21.890625 -1.875 L 21.890625 0.0625 L 3.578125 0.0625 L 3.578125 -35.71875 L 7.671875 -35.71875 Z M 7.671875 -1.875 "/></g></g></g><g fill="#000000" fill-opacity="1"><g transform="translate(273.042842, 166.499986)"><g><path d="M 3.578125 0.0625 L 3.578125 -35.71875 L 7.671875 -35.71875 L 7.671875 0.0625 Z M 3.578125 0.0625 "/></g></g></g><g fill="#000000" fill-opacity="1"><g transform="translate(282.767504, 166.499986)"><g><path d="M 28.609375 -35.71875 L 28.609375 -33.78125 L 17.578125 -33.78125 L 17.578125 0.0625 L 13.53125 0.0625 L 13.53125 -33.78125 L 2.5 -33.78125 L 2.5 -35.71875 Z M 28.609375 -35.71875 "/></g></g></g><g fill="#000000" fill-opacity="1"><g transform="translate(312.453888, 166.499986)"><g><path d="M 21.71875 -33.78125 L 7.671875 -33.78125 L 7.671875 -19.5625 L 20.1875 -19.5625 L 20.1875 -17.625 L 7.671875 -17.625 L 7.671875 -1.875 L 21.71875 -1.875 L 21.71875 0.0625 L 3.578125 0.0625 L 3.578125 -35.71875 L 21.71875 -35.71875 Z M 21.71875 -33.78125 "/></g></g></g><g fill="#000000" fill-opacity="1"><g transform="translate(335.656988, 166.499986)"><g/></g></g><g fill="#000000" fill-opacity="1"><g transform="translate(349.248882, 166.499986)"><g><path d="M 33.78125 0.0625 L 28.671875 0.0625 C 28.210938 -0.507812 27.6875 -1.179688 27.09375 -1.953125 C 26.507812 -2.734375 25.878906 -3.5625 25.203125 -4.4375 C 23.722656 -2.882812 22.003906 -1.578125 20.046875 -0.515625 C 18.097656 0.546875 15.925781 1.078125 13.53125 1.078125 C 11.1875 1.078125 9.1875 0.660156 7.53125 -0.171875 C 5.882812 -1.003906 4.625 -2.101562 3.75 -3.46875 C 2.882812 -4.832031 2.453125 -6.3125 2.453125 -7.90625 C 2.453125 -9.914062 2.976562 -11.675781 4.03125 -13.1875 C 5.09375 -14.707031 6.429688 -16.046875 8.046875 -17.203125 C 9.660156 -18.359375 11.300781 -19.390625 12.96875 -20.296875 C 12.363281 -21.054688 11.867188 -21.703125 11.484375 -22.234375 C 10.578125 -23.410156 9.90625 -24.601562 9.46875 -25.8125 C 9.03125 -27.03125 8.8125 -28.207031 8.8125 -29.34375 C 8.8125 -31.425781 9.550781 -33.1875 11.03125 -34.625 C 12.507812 -36.070312 14.671875 -36.796875 17.515625 -36.796875 C 20.054688 -36.796875 22.054688 -36.140625 23.515625 -34.828125 C 24.972656 -33.523438 25.703125 -31.984375 25.703125 -30.203125 C 25.703125 -28.722656 25.378906 -27.519531 24.734375 -26.59375 C 24.097656 -25.664062 23.226562 -24.765625 22.125 -23.890625 C 21.476562 -23.390625 20.753906 -22.894531 19.953125 -22.40625 C 19.160156 -21.914062 18.367188 -21.441406 17.578125 -20.984375 C 18.753906 -19.472656 20.117188 -17.703125 21.671875 -15.671875 C 23.222656 -13.640625 24.816406 -11.582031 26.453125 -9.5 C 27.359375 -10.863281 28.113281 -12.160156 28.71875 -13.390625 C 29.320312 -14.628906 29.796875 -15.632812 30.140625 -16.40625 C 30.484375 -17.1875 30.65625 -17.578125 30.65625 -17.578125 L 33.046875 -17.578125 C 33.046875 -17.578125 32.851562 -17.09375 32.46875 -16.125 C 32.09375 -15.15625 31.515625 -13.898438 30.734375 -12.359375 C 29.960938 -10.828125 29.007812 -9.265625 27.875 -7.671875 C 29.007812 -6.191406 30.085938 -4.789062 31.109375 -3.46875 C 32.128906 -2.144531 33.019531 -0.96875 33.78125 0.0625 Z M 17.515625 -34.859375 C 16.109375 -34.859375 14.894531 -34.46875 13.875 -33.6875 C 12.851562 -32.914062 12.34375 -31.789062 12.34375 -30.3125 C 12.34375 -29.519531 12.539062 -28.640625 12.9375 -27.671875 C 13.332031 -26.703125 13.96875 -25.628906 14.84375 -24.453125 C 15.03125 -24.222656 15.265625 -23.925781 15.546875 -23.5625 C 15.835938 -23.207031 16.171875 -22.785156 16.546875 -22.296875 C 17.679688 -22.941406 18.710938 -23.601562 19.640625 -24.28125 C 20.578125 -24.96875 21.269531 -25.671875 21.71875 -26.390625 C 22.40625 -27.523438 22.75 -28.679688 22.75 -29.859375 C 22.75 -31.222656 22.285156 -32.394531 21.359375 -33.375 C 20.429688 -34.363281 19.148438 -34.859375 17.515625 -34.859375 Z M 18.71875 -2.046875 C 19.695312 -2.503906 20.613281 -3.09375 21.46875 -3.8125 C 22.320312 -4.53125 23.128906 -5.304688 23.890625 -6.140625 C 22.253906 -8.265625 20.535156 -10.484375 18.734375 -12.796875 C 16.929688 -15.109375 15.347656 -17.175781 13.984375 -19 C 13.492188 -18.695312 12.953125 -18.375 12.359375 -18.03125 C 11.773438 -17.6875 11.316406 -17.398438 10.984375 -17.171875 C 9.421875 -15.992188 8.222656 -14.757812 7.390625 -13.46875 C 6.554688 -12.1875 6.140625 -10.785156 6.140625 -9.265625 C 6.140625 -8.171875 6.347656 -7.035156 6.765625 -5.859375 C 7.335938 -4.265625 8.273438 -3.050781 9.578125 -2.21875 C 10.890625 -1.382812 12.359375 -0.96875 13.984375 -0.96875 C 15.578125 -0.96875 17.15625 -1.328125 18.71875 -2.046875 Z M 18.71875 -2.046875 "/></g></g></g><g fill="#000000" fill-opacity="1"><g transform="translate(383.59871, 166.499986)"><g/></g></g><g fill="#000000" fill-opacity="1"><g transform="translate(397.190605, 166.499986)"><g><path d="M 31 0.0625 L 25.25 -13.359375 L 10.515625 -13.359375 L 4.546875 0.0625 L 2.453125 0.0625 L 18.65625 -36.40625 L 19.796875 -36.40625 L 35.4375 0.0625 Z M 11.375 -15.296875 L 24.453125 -15.296875 L 18.03125 -30.25 Z M 11.375 -15.296875 "/></g></g></g><g fill="#000000" fill-opacity="1"><g transform="translate(433.417173, 166.499986)"><g><path d="M 2.5625 -3.234375 C 3.539062 -2.484375 4.78125 -1.84375 6.28125 -1.3125 C 7.78125 -0.78125 9.742188 -0.515625 12.171875 -0.515625 C 13.492188 -0.515625 14.828125 -0.75 16.171875 -1.21875 C 17.523438 -1.695312 18.65625 -2.46875 19.5625 -3.53125 C 20.476562 -4.59375 20.9375 -5.992188 20.9375 -7.734375 C 20.9375 -9.367188 20.570312 -10.710938 19.84375 -11.765625 C 19.125 -12.828125 18.242188 -13.671875 17.203125 -14.296875 C 16.160156 -14.929688 15.144531 -15.425781 14.15625 -15.78125 C 13.175781 -16.144531 12.421875 -16.457031 11.890625 -16.71875 C 10.972656 -17.175781 9.992188 -17.640625 8.953125 -18.109375 C 7.910156 -18.585938 6.914062 -19.175781 5.96875 -19.875 C 5.019531 -20.582031 4.25 -21.492188 3.65625 -22.609375 C 3.070312 -23.722656 2.78125 -25.171875 2.78125 -26.953125 C 2.78125 -28.734375 3.117188 -30.25 3.796875 -31.5 C 4.484375 -32.757812 5.378906 -33.773438 6.484375 -34.546875 C 7.585938 -35.328125 8.765625 -35.894531 10.015625 -36.25 C 11.265625 -36.613281 12.457031 -36.796875 13.59375 -36.796875 C 15.113281 -36.796875 16.46875 -36.613281 17.65625 -36.25 C 18.851562 -35.894531 19.800781 -35.535156 20.5 -35.171875 C 21.207031 -34.816406 21.5625 -34.640625 21.5625 -34.640625 L 21.5625 -32.703125 C 21.5625 -32.703125 21.238281 -32.878906 20.59375 -33.234375 C 19.945312 -33.597656 19.023438 -33.957031 17.828125 -34.3125 C 16.628906 -34.675781 15.21875 -34.859375 13.59375 -34.859375 C 11.46875 -34.859375 9.65625 -34.300781 8.15625 -33.1875 C 6.664062 -32.070312 5.921875 -30.488281 5.921875 -28.4375 C 5.921875 -26.425781 6.523438 -24.851562 7.734375 -23.71875 C 8.953125 -22.582031 10.617188 -21.519531 12.734375 -20.53125 C 13.648438 -20.15625 14.75 -19.726562 16.03125 -19.25 C 17.320312 -18.78125 18.59375 -18.144531 19.84375 -17.34375 C 21.09375 -16.550781 22.125 -15.5 22.9375 -14.1875 C 23.757812 -12.882812 24.171875 -11.207031 24.171875 -9.15625 C 24.171875 -7.03125 23.601562 -5.171875 22.46875 -3.578125 C 21.332031 -1.984375 19.84375 -0.753906 18 0.109375 C 16.164062 0.984375 14.222656 1.421875 12.171875 1.421875 C 10.117188 1.421875 8.378906 1.191406 6.953125 0.734375 C 5.535156 0.285156 4.445312 -0.164062 3.6875 -0.625 C 2.9375 -1.082031 2.5625 -1.3125 2.5625 -1.3125 Z M 2.5625 -3.234375 "/></g></g></g><g fill="#000000" fill-opacity="1"><g transform="translate(457.018093, 166.499986)"><g><path d="M 2.5625 -3.234375 C 3.539062 -2.484375 4.78125 -1.84375 6.28125 -1.3125 C 7.78125 -0.78125 9.742188 -0.515625 12.171875 -0.515625 C 13.492188 -0.515625 14.828125 -0.75 16.171875 -1.21875 C 17.523438 -1.695312 18.65625 -2.46875 19.5625 -3.53125 C 20.476562 -4.59375 20.9375 -5.992188 20.9375 -7.734375 C 20.9375 -9.367188 20.570312 -10.710938 19.84375 -11.765625 C 19.125 -12.828125 18.242188 -13.671875 17.203125 -14.296875 C 16.160156 -14.929688 15.144531 -15.425781 14.15625 -15.78125 C 13.175781 -16.144531 12.421875 -16.457031 11.890625 -16.71875 C 10.972656 -17.175781 9.992188 -17.640625 8.953125 -18.109375 C 7.910156 -18.585938 6.914062 -19.175781 5.96875 -19.875 C 5.019531 -20.582031 4.25 -21.492188 3.65625 -22.609375 C 3.070312 -23.722656 2.78125 -25.171875 2.78125 -26.953125 C 2.78125 -28.734375 3.117188 -30.25 3.796875 -31.5 C 4.484375 -32.757812 5.378906 -33.773438 6.484375 -34.546875 C 7.585938 -35.328125 8.765625 -35.894531 10.015625 -36.25 C 11.265625 -36.613281 12.457031 -36.796875 13.59375 -36.796875 C 15.113281 -36.796875 16.46875 -36.613281 17.65625 -36.25 C 18.851562 -35.894531 19.800781 -35.535156 20.5 -35.171875 C 21.207031 -34.816406 21.5625 -34.640625 21.5625 -34.640625 L 21.5625 -32.703125 C 21.5625 -32.703125 21.238281 -32.878906 20.59375 -33.234375 C 19.945312 -33.597656 19.023438 -33.957031 17.828125 -34.3125 C 16.628906 -34.675781 15.21875 -34.859375 13.59375 -34.859375 C 11.46875 -34.859375 9.65625 -34.300781 8.15625 -33.1875 C 6.664062 -32.070312 5.921875 -30.488281 5.921875 -28.4375 C 5.921875 -26.425781 6.523438 -24.851562 7.734375 -23.71875 C 8.953125 -22.582031 10.617188 -21.519531 12.734375 -20.53125 C 13.648438 -20.15625 14.75 -19.726562 16.03125 -19.25 C 17.320312 -18.78125 18.59375 -18.144531 19.84375 -17.34375 C 21.09375 -16.550781 22.125 -15.5 22.9375 -14.1875 C 23.757812 -12.882812 24.171875 -11.207031 24.171875 -9.15625 C 24.171875 -7.03125 23.601562 -5.171875 22.46875 -3.578125 C 21.332031 -1.984375 19.84375 -0.753906 18 0.109375 C 16.164062 0.984375 14.222656 1.421875 12.171875 1.421875 C 10.117188 1.421875 8.378906 1.191406 6.953125 0.734375 C 5.535156 0.285156 4.445312 -0.164062 3.6875 -0.625 C 2.9375 -1.082031 2.5625 -1.3125 2.5625 -1.3125 Z M 2.5625 -3.234375 "/></g></g></g><g fill="#000000" fill-opacity="1"><g transform="translate(482.325418, 166.499986)"><g><path d="M 22.234375 -36.40625 C 24.773438 -36.40625 27.21875 -36.039062 29.5625 -35.3125 C 31.914062 -34.59375 34.015625 -33.484375 35.859375 -31.984375 C 37.703125 -30.492188 39.160156 -28.5625 40.234375 -26.1875 C 41.316406 -23.820312 41.859375 -20.988281 41.859375 -17.6875 C 41.859375 -14.65625 41.410156 -12.066406 40.515625 -9.921875 C 39.628906 -7.785156 38.457031 -6.003906 37 -4.578125 C 35.539062 -3.160156 33.945312 -2.03125 32.21875 -1.1875 C 30.488281 -0.351562 28.753906 0.222656 27.015625 0.546875 C 25.273438 0.867188 23.679688 1.03125 22.234375 1.03125 C 20.835938 1.03125 19.265625 0.867188 17.515625 0.546875 C 15.773438 0.222656 14.03125 -0.351562 12.28125 -1.1875 C 10.539062 -2.03125 8.945312 -3.160156 7.5 -4.578125 C 6.0625 -6.003906 4.894531 -7.785156 4 -9.921875 C 3.113281 -12.066406 2.671875 -14.65625 2.671875 -17.6875 C 2.671875 -20.988281 3.203125 -23.820312 4.265625 -26.1875 C 5.328125 -28.5625 6.773438 -30.492188 8.609375 -31.984375 C 10.453125 -33.484375 12.546875 -34.59375 14.890625 -35.3125 C 17.242188 -36.039062 19.691406 -36.40625 22.234375 -36.40625 Z M 22.234375 -0.90625 C 23.523438 -0.90625 24.878906 -1.007812 26.296875 -1.21875 C 27.722656 -1.425781 29.109375 -1.851562 30.453125 -2.5 C 31.796875 -3.144531 33.007812 -4.082031 34.09375 -5.3125 C 35.175781 -6.550781 36.039062 -8.171875 36.6875 -10.171875 C 37.332031 -12.179688 37.65625 -14.6875 37.65625 -17.6875 C 37.65625 -20.644531 37.300781 -23.117188 36.59375 -25.109375 C 35.894531 -27.097656 34.976562 -28.71875 33.84375 -29.96875 C 32.707031 -31.21875 31.445312 -32.164062 30.0625 -32.8125 C 28.675781 -33.457031 27.300781 -33.894531 25.9375 -34.125 C 24.570312 -34.351562 23.335938 -34.46875 22.234375 -34.46875 C 21.140625 -34.46875 19.910156 -34.351562 18.546875 -34.125 C 17.179688 -33.894531 15.816406 -33.457031 14.453125 -32.8125 C 13.085938 -32.164062 11.820312 -31.21875 10.65625 -29.96875 C 9.5 -28.71875 8.570312 -27.097656 7.875 -25.109375 C 7.175781 -23.117188 6.828125 -20.644531 6.828125 -17.6875 C 6.828125 -14.6875 7.15625 -12.179688 7.8125 -10.171875 C 8.476562 -8.171875 9.351562 -6.550781 10.4375 -5.3125 C 11.519531 -4.082031 12.734375 -3.144531 14.078125 -2.5 C 15.421875 -1.851562 16.789062 -1.425781 18.1875 -1.21875 C 19.59375 -1.007812 20.941406 -0.90625 22.234375 -0.90625 Z M 22.234375 -0.90625 "/></g></g></g><g fill="#000000" fill-opacity="1"><g transform="translate(525.603994, 166.499986)"><g><path d="M 32.703125 -3.875 L 32.703125 -1.9375 C 32.703125 -1.9375 32.285156 -1.6875 31.453125 -1.1875 C 30.617188 -0.695312 29.382812 -0.207031 27.75 0.28125 C 26.125 0.78125 24.113281 1.03125 21.71875 1.03125 C 20.28125 1.03125 18.71875 0.867188 17.03125 0.546875 C 15.34375 0.222656 13.65625 -0.351562 11.96875 -1.1875 C 10.28125 -2.03125 8.734375 -3.160156 7.328125 -4.578125 C 5.929688 -6.003906 4.804688 -7.785156 3.953125 -9.921875 C 3.097656 -12.066406 2.671875 -14.65625 2.671875 -17.6875 C 2.671875 -20.988281 3.203125 -23.820312 4.265625 -26.1875 C 5.328125 -28.5625 6.773438 -30.492188 8.609375 -31.984375 C 10.453125 -33.484375 12.546875 -34.59375 14.890625 -35.3125 C 17.242188 -36.039062 19.691406 -36.40625 22.234375 -36.40625 C 24.398438 -36.40625 26.269531 -36.203125 27.84375 -35.796875 C 29.414062 -35.398438 30.617188 -35.007812 31.453125 -34.625 C 32.285156 -34.25 32.703125 -34.0625 32.703125 -34.0625 L 32.703125 -32.140625 C 32.703125 -32.140625 32.289062 -32.328125 31.46875 -32.703125 C 30.65625 -33.078125 29.472656 -33.460938 27.921875 -33.859375 C 26.367188 -34.265625 24.472656 -34.46875 22.234375 -34.46875 C 21.140625 -34.46875 19.910156 -34.351562 18.546875 -34.125 C 17.179688 -33.894531 15.816406 -33.457031 14.453125 -32.8125 C 13.085938 -32.164062 11.820312 -31.21875 10.65625 -29.96875 C 9.5 -28.71875 8.570312 -27.097656 7.875 -25.109375 C 7.175781 -23.117188 6.828125 -20.644531 6.828125 -17.6875 C 6.828125 -14.6875 7.15625 -12.179688 7.8125 -10.171875 C 8.476562 -8.171875 9.351562 -6.550781 10.4375 -5.3125 C 11.519531 -4.082031 12.734375 -3.144531 14.078125 -2.5 C 15.421875 -1.851562 16.800781 -1.425781 18.21875 -1.21875 C 19.644531 -1.007812 20.984375 -0.90625 22.234375 -0.90625 C 24.429688 -0.90625 26.304688 -1.148438 27.859375 -1.640625 C 29.421875 -2.140625 30.617188 -2.632812 31.453125 -3.125 C 32.285156 -3.625 32.703125 -3.875 32.703125 -3.875 Z M 32.703125 -3.875 "/></g></g></g><g fill="#000000" fill-opacity="1"><g transform="translate(559.555728, 166.499986)"><g><path d="M 3.578125 0.0625 L 3.578125 -35.71875 L 7.671875 -35.71875 L 7.671875 0.0625 Z M 3.578125 0.0625 "/></g></g></g><g fill="#000000" fill-opacity="1"><g transform="translate(569.280367, 166.499986)"><g><path d="M 31 0.0625 L 25.25 -13.359375 L 10.515625 -13.359375 L 4.546875 0.0625 L 2.453125 0.0625 L 18.65625 -36.40625 L 19.796875 -36.40625 L 35.4375 0.0625 Z M 11.375 -15.296875 L 24.453125 -15.296875 L 18.03125 -30.25 Z M 11.375 -15.296875 "/></g></g></g><g fill="#000000" fill-opacity="1"><g transform="translate(596.406113, 166.499986)"><g><path d="M 28.609375 -35.71875 L 28.609375 -33.78125 L 17.578125 -33.78125 L 17.578125 0.0625 L 13.53125 0.0625 L 13.53125 -33.78125 L 2.5 -33.78125 L 2.5 -35.71875 Z M 28.609375 -35.71875 "/></g></g></g><g fill="#000000" fill-opacity="1"><g transform="translate(626.092496, 166.499986)"><g><path d="M 21.71875 -33.78125 L 7.671875 -33.78125 L 7.671875 -19.5625 L 20.1875 -19.5625 L 20.1875 -17.625 L 7.671875 -17.625 L 7.671875 -1.875 L 21.71875 -1.875 L 21.71875 0.0625 L 3.578125 0.0625 L 3.578125 -35.71875 L 21.71875 -35.71875 Z M 21.71875 -33.78125 "/></g></g></g><g fill="#000000" fill-opacity="1"><g transform="translate(649.295574, 166.499986)"><g><path d="M 2.5625 -3.234375 C 3.539062 -2.484375 4.78125 -1.84375 6.28125 -1.3125 C 7.78125 -0.78125 9.742188 -0.515625 12.171875 -0.515625 C 13.492188 -0.515625 14.828125 -0.75 16.171875 -1.21875 C 17.523438 -1.695312 18.65625 -2.46875 19.5625 -3.53125 C 20.476562 -4.59375 20.9375 -5.992188 20.9375 -7.734375 C 20.9375 -9.367188 20.570312 -10.710938 19.84375 -11.765625 C 19.125 -12.828125 18.242188 -13.671875 17.203125 -14.296875 C 16.160156 -14.929688 15.144531 -15.425781 14.15625 -15.78125 C 13.175781 -16.144531 12.421875 -16.457031 11.890625 -16.71875 C 10.972656 -17.175781 9.992188 -17.640625 8.953125 -18.109375 C 7.910156 -18.585938 6.914062 -19.175781 5.96875 -19.875 C 5.019531 -20.582031 4.25 -21.492188 3.65625 -22.609375 C 3.070312 -23.722656 2.78125 -25.171875 2.78125 -26.953125 C 2.78125 -28.734375 3.117188 -30.25 3.796875 -31.5 C 4.484375 -32.757812 5.378906 -33.773438 6.484375 -34.546875 C 7.585938 -35.328125 8.765625 -35.894531 10.015625 -36.25 C 11.265625 -36.613281 12.457031 -36.796875 13.59375 -36.796875 C 15.113281 -36.796875 16.46875 -36.613281 17.65625 -36.25 C 18.851562 -35.894531 19.800781 -35.535156 20.5 -35.171875 C 21.207031 -34.816406 21.5625 -34.640625 21.5625 -34.640625 L 21.5625 -32.703125 C 21.5625 -32.703125 21.238281 -32.878906 20.59375 -33.234375 C 19.945312 -33.597656 19.023438 -33.957031 17.828125 -34.3125 C 16.628906 -34.675781 15.21875 -34.859375 13.59375 -34.859375 C 11.46875 -34.859375 9.65625 -34.300781 8.15625 -33.1875 C 6.664062 -32.070312 5.921875 -30.488281 5.921875 -28.4375 C 5.921875 -26.425781 6.523438 -24.851562 7.734375 -23.71875 C 8.953125 -22.582031 10.617188 -21.519531 12.734375 -20.53125 C 13.648438 -20.15625 14.75 -19.726562 16.03125 -19.25 C 17.320312 -18.78125 18.59375 -18.144531 19.84375 -17.34375 C 21.09375 -16.550781 22.125 -15.5 22.9375 -14.1875 C 23.757812 -12.882812 24.171875 -11.207031 24.171875 -9.15625 C 24.171875 -7.03125 23.601562 -5.171875 22.46875 -3.578125 C 21.332031 -1.984375 19.84375 -0.753906 18 0.109375 C 16.164062 0.984375 14.222656 1.421875 12.171875 1.421875 C 10.117188 1.421875 8.378906 1.191406 6.953125 0.734375 C 5.535156 0.285156 4.445312 -0.164062 3.6875 -0.625 C 2.9375 -1.082031 2.5625 -1.3125 2.5625 -1.3125 Z M 2.5625 -3.234375 "/></g></g></g></svg>