<?xml version="1.0" encoding="UTF-8"?>
<svg width="99px" height="32px" viewBox="0 0 99 32" version="1.1" xmlns="http://www.w3.org/2000/svg" xmlns:xlink="http://www.w3.org/1999/xlink">
    <title>251B06A5-B6AE-40B7-9BA8-9439A5528DB1</title>
    <g id="Page-1" stroke="none" stroke-width="1" fill="none" fill-rule="evenodd">
        <g id="Vida-Hotels-Logo---Web" transform="translate(-45.000000, -43.000000)" fill="#004D71">
            <g id="Vida-Hotel&amp;Resort-EN" transform="translate(45.000000, 43.000000)">
                <path d="M46.6733041,0.754856196 C55.3142562,0.754856196 66.3864977,0.828095687 66.3864977,8.58886601 C66.3864977,16.3483285 55.3142562,16.3888718 46.6733041,16.3888718 L46.6733041,0.754856196 Z M44.2053948,0.00807496006 L44.2053948,17.1696571 C54.7793463,17.1696571 68.3848895,17.7686515 68.7641655,8.58886601 C68.3848895,-0.593535142 54.7793463,0.00807496006 44.2053948,0.00807496006 L44.2053948,0.00807496006 Z" id="Fill-1"></path>
                <polygon id="Fill-3" points="31.9339874 17.1937215 34.390126 17.1937215 34.390126 0.00859809928 31.9339874 0.00859809928"></polygon>
                <polygon id="Fill-5" points="24.5574628 0.00833652967 12.2806932 17.1934599 2.78784579e-14 0.00833652967 3.01458975 0.00833652967 13.1818005 14.2050271 23.3790917 0.00833652967"></polygon>
                <polygon id="Fill-6" points="73.6937063 17.1929367 85.970476 0.00781339045 98.2498613 17.1929367 95.2365794 17.1929367 85.0680608 2.99755403 74.8707696 17.1929367"></polygon>
                <polygon id="Fill-7" points="0.00340040493 25.9181142 0.807726955 25.9181142 0.807726955 28.3807921 3.88247772 28.3807921 3.88247772 25.9181142 4.68680427 25.9181142 4.68680427 31.8492051 3.88247772 31.8492051 3.88247772 29.1341126 0.807726955 29.1341126 0.807726955 31.8492051 0.00340040493 31.8492051"></polygon>
                <path d="M9.3524214,31.2453717 C9.69246189,31.2453717 9.99980618,31.182595 10.2744543,31.0570416 C10.5477945,30.9314881 10.7818993,30.7627757 10.9780765,30.5509044 C11.1729459,30.339033 11.3233484,30.0879262 11.4292841,29.8015074 C11.5352198,29.512473 11.5888416,29.2064366 11.5888416,28.8833981 C11.5888416,28.5590518 11.5352198,28.2530153 11.4292841,27.9665966 C11.3233484,27.67887 11.1729459,27.4290711 10.9780765,27.2158918 C10.7818993,27.0040205 10.5477945,26.8353081 10.2744543,26.7097546 C9.99980618,26.5842012 9.69246189,26.5214245 9.3524214,26.5214245 C9.01107305,26.5214245 8.70372876,26.5842012 8.43038852,26.7097546 C8.15704828,26.8353081 7.92294348,27.0040205 7.72676627,27.2158918 C7.53189691,27.4290711 7.38149439,27.67887 7.27555869,27.9665966 C7.16831515,28.2530153 7.11600123,28.5590518 7.11600123,28.8833981 C7.11600123,29.2064366 7.16831515,29.512473 7.27555869,29.8015074 C7.38149439,30.0879262 7.53189691,30.339033 7.72676627,30.5509044 C7.92294348,30.7627757 8.15704828,30.9314881 8.43038852,31.0570416 C8.70372876,31.182595 9.01107305,31.2453717 9.3524214,31.2453717 M9.3524214,32 C8.89990597,32 8.48401029,31.9202213 8.10342651,31.7606638 C7.72415057,31.6011063 7.39849641,31.3826957 7.12777186,31.1041241 C6.85704732,30.8242446 6.64517593,30.4946669 6.49084987,30.115391 C6.33783164,29.7348072 6.26066861,29.3241429 6.26066861,28.8833981 C6.26066861,28.4426533 6.33783164,28.031989 6.49084987,27.6514052 C6.64517593,27.2721293 6.85704732,26.9425516 7.12777186,26.66398 C7.39849641,26.3841005 7.72415057,26.1656899 8.10342651,26.0061324 C8.48401029,25.8465749 8.89990597,25.7667962 9.3524214,25.7667962 C9.80493682,25.7667962 10.2208325,25.8465749 10.6001084,26.0061324 C10.9806922,26.1656899 11.3050385,26.3841005 11.5770709,26.66398 C11.8477955,26.9425516 12.0596669,27.2721293 12.2139929,27.6514052 C12.3670111,28.031989 12.4428663,28.4426533 12.4428663,28.8833981 C12.4428663,29.3241429 12.3670111,29.7348072 12.2139929,30.115391 C12.0596669,30.4946669 11.8477955,30.8242446 11.5770709,31.1041241 C11.3050385,31.3826957 10.9806922,31.6011063 10.6001084,31.7606638 C10.2208325,31.9202213 9.80493682,32 9.3524214,32" id="Fill-8"></path>
                <polygon id="Fill-9" points="15.25814 26.6716963 13.3486819 26.6716963 13.3486819 25.9183758 17.9719247 25.9183758 17.9719247 26.6716963 16.0624666 26.6716963 16.0624666 31.8481588 15.25814 31.8481588"></polygon>
                <polygon id="Fill-10" points="19.245638 25.9181142 23.0737092 25.9181142 23.0737092 26.6714347 20.0499645 26.6714347 20.0499645 28.4396453 22.8644535 28.4396453 22.8644535 29.1929657 20.0499645 29.1929657 20.0499645 31.0945768 23.2241117 31.0945768 23.2241117 31.8492051 19.245638 31.8492051"></polygon>
                <polygon id="Fill-11" points="24.782805 25.9181142 25.5871316 25.9181142 25.5871316 31.0945768 28.3087634 31.0945768 28.3087634 31.8492051 24.782805 31.8492051"></polygon>
                <path d="M29.7249012,30.6092344 C29.8700724,30.827645 30.0557868,30.9872025 30.2820445,31.0905225 C30.5083022,31.1938425 30.7410992,31.2448485 30.9817432,31.2448485 C31.1151437,31.2448485 31.2524678,31.2252308 31.3924075,31.1820718 C31.5310394,31.1402207 31.6592085,31.077444 31.7729913,30.9937417 C31.8867741,30.9100394 31.9809391,30.8067194 32.0541786,30.6850896 C32.1261102,30.560844 32.16273,30.4182886 32.16273,30.2574233 C32.16273,30.0285499 32.0907984,29.8532982 31.9443194,29.734284 C31.7991482,29.613962 31.6199731,29.5132577 31.4041781,29.4321711 C31.189691,29.3510846 30.9542784,29.2726137 30.7005559,29.1967585 C30.4468334,29.1222112 30.2127286,29.0175833 29.9969336,28.882875 C29.7824465,28.7494745 29.6019635,28.5689914 29.4567924,28.3427337 C29.3116212,28.116476 29.2383818,27.8104396 29.2383818,27.4259322 C29.2383818,27.2532963 29.2763094,27.0675819 29.3521645,26.8727125 C29.4267119,26.6778432 29.545726,26.498668 29.7078992,26.3364948 C29.8700724,26.1743217 30.0780202,26.0396133 30.3317427,25.9297541 C30.5867731,25.8212027 30.8928095,25.7662731 31.2498521,25.7662731 C31.5741984,25.7662731 31.8828505,25.8120477 32.179732,25.9009814 C32.4753057,25.9899151 32.7355674,26.171706 32.9579016,26.4450462 L32.3052854,27.0401171 C32.2045811,26.8844831 32.0620257,26.7589297 31.8776191,26.6634568 C31.6932125,26.5679839 31.4839569,26.5209014 31.2498521,26.5209014 C31.02621,26.5209014 30.8404956,26.549674 30.6927088,26.6085272 C30.5436141,26.6673804 30.4259078,26.7432356 30.3369741,26.8347849 C30.2467326,26.9276421 30.1839559,27.0270386 30.1473362,27.1329743 C30.1107164,27.23891 30.0937144,27.3369986 30.0937144,27.4259322 C30.0937144,27.6770391 30.165646,27.8692927 30.3108172,28.0040011 C30.4572961,28.1374016 30.6364713,28.245953 30.8509584,28.3296552 C31.0667533,28.4146654 31.3008581,28.4892127 31.5545807,28.5572208 C31.809611,28.623921 32.0437158,28.7167783 32.2582029,28.8371003 C32.4739978,28.9574223 32.6544809,29.1195955 32.799652,29.3236198 C32.9448231,29.5263362 33.0167548,29.8075235 33.0167548,30.164566 C33.0167548,30.4496769 32.963133,30.707323 32.8545816,30.9361964 C32.7447224,31.1650698 32.5982434,31.3573235 32.4138368,31.5129574 C32.2294302,31.6698992 32.0123275,31.7902212 31.7612206,31.8739234 C31.508806,31.9576257 31.2406971,31.9994769 30.9555862,31.9994769 C30.5763103,31.9994769 30.2153443,31.9327766 29.8753038,31.7980683 C29.5352633,31.6646678 29.2645387,31.4580278 29.0631301,31.1794561 L29.7249012,30.6092344 Z" id="Fill-12"></path>
                <path d="M41.2817005,29.6788313 L40.1752611,26.9558916 L40.1595669,26.9558916 L39.0361254,29.6788313 L41.2817005,29.6788313 Z M39.840452,25.9187681 L40.5702312,25.9187681 L43.1074564,31.8485512 L42.1697293,31.8485512 L41.5746585,30.3824535 L38.7510145,30.3824535 L38.1650986,31.8485512 L37.2273716,31.8485512 L39.840452,25.9187681 Z" id="Fill-13"></path>
                <polygon id="Fill-14" points="44.297075 25.9181142 45.3525083 25.9181142 48.6195128 30.7937717 48.6365148 30.7937717 48.6365148 25.9181142 49.4408413 25.9181142 49.4408413 31.8492051 48.4181042 31.8492051 45.1184035 26.9735476 45.1014015 26.9735476 45.1014015 31.8492051 44.297075 31.8492051"></polygon>
                <path d="M52.0541833,31.0945768 L53.0677656,31.0945768 C53.4091139,31.0945768 53.7308445,31.0488021 54.0355731,30.9572528 C54.3403017,30.8643955 54.6071027,30.7257636 54.8346683,30.5426649 C55.0648495,30.3582583 55.2453326,30.1267692 55.3800409,29.8508133 C55.5147493,29.5735495 55.5814495,29.2518189 55.5814495,28.8830057 C55.5814495,28.6933678 55.5500612,28.4710336 55.4885923,28.2173111 C55.4271234,27.9635886 55.3120328,27.7216367 55.1407047,27.4927633 C54.9706845,27.2638899 54.7352718,27.0690205 54.4331589,26.9107709 C54.131046,26.7512134 53.7413073,26.6714347 53.2600192,26.6714347 L52.0541833,26.6714347 L52.0541833,31.0945768 Z M51.2498568,25.9181142 L53.3188724,25.9181142 C53.7386916,25.9181142 54.1048891,25.9651967 54.4213883,26.0606697 C54.7365797,26.1548347 55.0099199,26.281696 55.2427169,26.4412534 C55.4728981,26.6008109 55.6664596,26.7839096 55.8194779,26.9905496 C55.9738039,27.1971896 56.0941259,27.409061 56.1843675,27.6274716 C56.2733011,27.8445744 56.3373857,28.062985 56.3766211,28.2800878 C56.4158566,28.4984984 56.4354743,28.6985992 56.4354743,28.8830057 C56.4354743,29.2635895 56.3648505,29.629787 56.2262186,29.9842138 C56.0862789,30.3399485 55.8796389,30.6551399 55.6062986,30.9310958 C55.3316505,31.2083596 54.9929179,31.4293859 54.587485,31.5967904 C54.1833599,31.7655028 53.7164582,31.8492051 53.1854719,31.8492051 L51.2498568,31.8492051 L51.2498568,25.9181142 Z" id="Fill-15"></path>
                <path d="M61.4492406,28.5313254 L62.5046739,28.5313254 C62.6603079,28.5313254 62.8159418,28.5195548 62.9702678,28.4933978 C63.1232861,28.4685487 63.2593023,28.422774 63.3796243,28.3560738 C63.4999463,28.2880657 63.5967271,28.1925928 63.6686587,28.0670393 C63.7418982,27.9401781 63.7785179,27.7780049 63.7785179,27.5765963 C63.7785179,27.3751877 63.7418982,27.2117067 63.6686587,27.0874612 C63.5967271,26.9605999 63.4999463,26.865127 63.3796243,26.7971189 C63.2593023,26.7304186 63.1232861,26.684644 62.9702678,26.658487 C62.8159418,26.6336379 62.6603079,26.6218673 62.5046739,26.6218673 L61.4492406,26.6218673 L61.4492406,28.5313254 Z M60.644914,25.918245 L62.7309316,25.918245 C63.1115154,25.918245 63.4227833,25.9705589 63.6686587,26.0725711 C63.9145341,26.1758911 64.1094035,26.3079837 64.2519589,26.4662333 C64.3932065,26.6257908 64.492603,26.804966 64.5488404,27.002451 C64.6050779,27.2012439 64.6325427,27.3921898 64.6325427,27.5765963 C64.6325427,27.7662343 64.5985387,27.949333 64.5318384,28.1245847 C64.4651382,28.3011441 64.3683574,28.4607016 64.242804,28.603257 C64.1172506,28.7458125 63.9629245,28.8648267 63.7824415,28.9629153 C63.6006506,29.0610039 63.3979342,29.1211649 63.1742921,29.1433983 L64.8588004,31.8493359 L63.8530653,31.8493359 L62.3451165,29.2349477 L61.4492406,29.2349477 L61.4492406,31.8493359 L60.644914,31.8493359 L60.644914,25.918245 Z" id="Fill-16"></path>
                <polygon id="Fill-17" points="66.1818195 25.9181142 70.0098907 25.9181142 70.0098907 26.6714347 66.9861461 26.6714347 66.9861461 28.4396453 69.8006351 28.4396453 69.8006351 29.1929657 66.9861461 29.1929657 66.9861461 31.0945768 70.1602933 31.0945768 70.1602933 31.8492051 66.1818195 31.8492051"></polygon>
                <path d="M71.8954153,30.6092344 C72.0405864,30.827645 72.2263008,30.9872025 72.4525585,31.0905225 C72.6788163,31.1938425 72.9116132,31.2448485 73.1509494,31.2448485 C73.2856578,31.2448485 73.4229818,31.2252308 73.5616137,31.1820718 C73.7015534,31.1402207 73.8297225,31.077444 73.9435053,30.9937417 C74.0572881,30.9100394 74.1514532,30.8067194 74.2246927,30.6850896 C74.2966243,30.560844 74.333244,30.4182886 74.333244,30.2574233 C74.333244,30.0285499 74.2600046,29.8532982 74.1148334,29.734284 C73.9696623,29.613962 73.7891793,29.5132577 73.5746922,29.4321711 C73.3602051,29.3510846 73.1247924,29.2726137 72.8710699,29.1967585 C72.6173474,29.1222112 72.3832426,29.0175833 72.1674477,28.882875 C71.9516527,28.7494745 71.7724776,28.5689914 71.6273064,28.3427337 C71.4821353,28.116476 71.4088958,27.8104396 71.4088958,27.4259322 C71.4088958,27.2532963 71.4468234,27.0675819 71.5226786,26.8727125 C71.5972259,26.6778432 71.7162401,26.498668 71.8784133,26.3364948 C72.0405864,26.1743217 72.2485343,26.0396133 72.5022568,25.9297541 C72.7572871,25.8212027 73.0620157,25.7662731 73.4203661,25.7662731 C73.7434046,25.7662731 74.0533646,25.8120477 74.3489382,25.9009814 C74.6458197,25.9899151 74.9047736,26.171706 75.1284157,26.4450462 L74.4757995,27.0401171 C74.3750952,26.8844831 74.2325397,26.7589297 74.0481332,26.6634568 C73.8637266,26.5679839 73.6544709,26.5209014 73.4203661,26.5209014 C73.1967241,26.5209014 73.0110097,26.549674 72.8632228,26.6085272 C72.7141282,26.6673804 72.5964218,26.7432356 72.5061803,26.8347849 C72.4172467,26.9276421 72.3544699,27.0270386 72.3178502,27.1329743 C72.2812305,27.23891 72.2642284,27.3369986 72.2642284,27.4259322 C72.2642284,27.6770391 72.3361601,27.8692927 72.4813312,28.0040011 C72.6265023,28.1374016 72.8069854,28.245953 73.0214724,28.3296552 C73.2372674,28.4146654 73.4713722,28.4892127 73.7250947,28.5572208 C73.9801251,28.623921 74.2142299,28.7167783 74.428717,28.8371003 C74.6445119,28.9574223 74.8236871,29.1195955 74.970166,29.3236198 C75.1140293,29.5263362 75.1872688,29.8075235 75.1872688,30.164566 C75.1872688,30.4496769 75.133647,30.707323 75.0237878,30.9361964 C74.9152364,31.1650698 74.7687574,31.3573235 74.5843509,31.5129574 C74.3999443,31.6698992 74.1828415,31.7902212 73.9304268,31.8739234 C73.67932,31.9576257 73.4112112,31.9994769 73.1261003,31.9994769 C72.7468244,31.9994769 72.3858583,31.9327766 72.0458178,31.7980683 C71.7044695,31.6646678 71.4337449,31.4580278 71.2336442,31.1794561 L71.8954153,30.6092344 Z" id="Fill-18"></path>
                <path d="M79.5183384,31.2453717 C79.8583789,31.2453717 80.1657232,31.182595 80.4403713,31.0570416 C80.7137115,30.9314881 80.9478163,30.7627757 81.1439935,30.5509044 C81.3388629,30.339033 81.4892654,30.0879262 81.5952011,29.8015074 C81.7011368,29.512473 81.7547586,29.2064366 81.7547586,28.8833981 C81.7547586,28.5590518 81.7011368,28.2530153 81.5952011,27.9665966 C81.4892654,27.67887 81.3388629,27.4290711 81.1439935,27.2158918 C80.9478163,27.0040205 80.7137115,26.8353081 80.4403713,26.7097546 C80.1657232,26.5842012 79.8583789,26.5214245 79.5183384,26.5214245 C79.1782979,26.5214245 78.8696458,26.5842012 78.5963055,26.7097546 C78.3229653,26.8353081 78.0888605,27.0040205 77.8926833,27.2158918 C77.6978139,27.4290711 77.5474114,27.67887 77.4414757,27.9665966 C77.33554,28.2530153 77.2819183,28.5590518 77.2819183,28.8833981 C77.2819183,29.2064366 77.33554,29.512473 77.4414757,29.8015074 C77.5474114,30.0879262 77.6978139,30.339033 77.8926833,30.5509044 C78.0888605,30.7627757 78.3229653,30.9314881 78.5963055,31.0570416 C78.8696458,31.182595 79.1782979,31.2453717 79.5183384,31.2453717 M79.5183384,32 C79.065823,32 78.6499273,31.9202213 78.2693435,31.7606638 C77.8900676,31.6011063 77.5644134,31.3826957 77.2936889,31.1041241 C77.0229643,30.8242446 76.811093,30.4946669 76.6567669,30.115391 C76.5037487,29.7348072 76.4278935,29.3241429 76.4278935,28.8833981 C76.4278935,28.4426533 76.5037487,28.031989 76.6567669,27.6514052 C76.811093,27.2721293 77.0229643,26.9425516 77.2936889,26.66398 C77.5644134,26.3841005 77.8900676,26.1656899 78.2693435,26.0061324 C78.6499273,25.8465749 79.065823,25.7667962 79.5183384,25.7667962 C79.9708538,25.7667962 80.3867495,25.8465749 80.7673333,26.0061324 C81.1466092,26.1656899 81.4722634,26.3841005 81.7429879,26.66398 C82.0137125,26.9425516 82.2255839,27.2721293 82.3799099,27.6514052 C82.5329282,28.031989 82.6087834,28.4426533 82.6087834,28.8833981 C82.6087834,29.3241429 82.5329282,29.7348072 82.3799099,30.115391 C82.2255839,30.4946669 82.0137125,30.8242446 81.7429879,31.1041241 C81.4722634,31.3826957 81.1466092,31.6011063 80.7673333,31.7606638 C80.3867495,31.9202213 79.9708538,32 79.5183384,32" id="Fill-19"></path>
                <path d="M84.9885437,28.5313254 L86.043977,28.5313254 C86.199611,28.5313254 86.3552449,28.5195548 86.5095709,28.4933978 C86.6625892,28.4685487 86.7986054,28.422774 86.9189274,28.3560738 C87.0392494,28.2880657 87.1360302,28.1925928 87.2079618,28.0670393 C87.2812013,27.9401781 87.317821,27.7780049 87.317821,27.5765963 C87.317821,27.3751877 87.2812013,27.2117067 87.2079618,27.0874612 C87.1360302,26.9605999 87.0392494,26.865127 86.9189274,26.7971189 C86.7986054,26.7304186 86.6625892,26.684644 86.5095709,26.658487 C86.3552449,26.6336379 86.199611,26.6218673 86.043977,26.6218673 L84.9885437,26.6218673 L84.9885437,28.5313254 Z M84.1842171,25.918245 L86.2702348,25.918245 C86.6508185,25.918245 86.9620864,25.9705589 87.2079618,26.0725711 C87.4538372,26.1758911 87.6487066,26.3079837 87.791262,26.4662333 C87.9325096,26.6257908 88.0319061,26.804966 88.0881435,27.002451 C88.144381,27.2012439 88.1718458,27.3921898 88.1718458,27.5765963 C88.1718458,27.7662343 88.1378418,27.949333 88.0711415,28.1245847 C88.0044413,28.3011441 87.9076605,28.4607016 87.7821071,28.603257 C87.6565537,28.7458125 87.5022276,28.8648267 87.3217446,28.9629153 C87.1399537,29.0610039 86.9372373,29.1211649 86.7135952,29.1433983 L88.3981035,31.8493359 L87.3923684,31.8493359 L85.8844196,29.2349477 L84.9885437,29.2349477 L84.9885437,31.8493359 L84.1842171,31.8493359 L84.1842171,25.918245 Z" id="Fill-20"></path>
                <polygon id="Fill-21" points="90.8106908 26.6716963 88.9012327 26.6716963 88.9012327 25.9183758 93.5244755 25.9183758 93.5244755 26.6716963 91.6150174 26.6716963 91.6150174 31.8481588 90.8106908 31.8481588"></polygon>
                <path d="M94.9737019,30.6092344 C95.1188731,30.827645 95.3045875,30.9872025 95.5308452,31.0905225 C95.7571029,31.1938425 95.9898999,31.2448485 96.2305439,31.2448485 C96.3639444,31.2448485 96.5012685,31.2252308 96.6412082,31.1820718 C96.7798401,31.1402207 96.9080092,31.077444 97.021792,30.9937417 C97.1368826,30.9100394 97.2297398,30.8067194 97.3029793,30.6850896 C97.374911,30.560844 97.4115307,30.4182886 97.4115307,30.2574233 C97.4115307,30.0285499 97.3395991,29.8532982 97.1944279,29.734284 C97.047949,29.613962 96.8687738,29.5132577 96.6529788,29.4321711 C96.4384918,29.3510846 96.2030791,29.2726137 95.9493566,29.1967585 C95.6956341,29.1222112 95.4615293,29.0175833 95.2457343,28.882875 C95.0312473,28.7494745 94.8507642,28.5689914 94.7055931,28.3427337 C94.560422,28.116476 94.4871825,27.8104396 94.4871825,27.4259322 C94.4871825,27.2532963 94.5251101,27.0675819 94.6009653,26.8727125 C94.6768204,26.6778432 94.7945268,26.498668 94.9566999,26.3364948 C95.1188731,26.1743217 95.3268209,26.0396133 95.5805434,25.9297541 C95.8355738,25.8212027 96.1416103,25.7662731 96.4986528,25.7662731 C96.8229991,25.7662731 97.1316512,25.8120477 97.4285327,25.9009814 C97.7241064,25.9899151 97.9843682,26.171706 98.2080102,26.4450462 L97.5540861,27.0401171 C97.4533818,26.8844831 97.3108264,26.7589297 97.1264198,26.6634568 C96.9420133,26.5679839 96.7327576,26.5209014 96.4986528,26.5209014 C96.2750108,26.5209014 96.0892963,26.549674 95.9415095,26.6085272 C95.7937227,26.6673804 95.6747085,26.7432356 95.5857748,26.8347849 C95.4955333,26.9276421 95.4327566,27.0270386 95.3974447,27.1329743 C95.360825,27.23891 95.3425151,27.3369986 95.3425151,27.4259322 C95.3425151,27.6770391 95.4144467,27.8692927 95.5596179,28.0040011 C95.7060969,28.1374016 95.885272,28.245953 96.101067,28.3296552 C96.315554,28.4146654 96.5509667,28.4892127 96.8046892,28.5572208 C97.0584117,28.623921 97.2925165,28.7167783 97.5070036,28.8371003 C97.7227985,28.9574223 97.9032816,29.1195955 98.0484527,29.3236198 C98.1936238,29.5263362 98.2668633,29.8075235 98.2668633,30.164566 C98.2668633,30.4496769 98.2119337,30.707323 98.1033823,30.9361964 C97.9935231,31.1650698 97.8470441,31.3573235 97.6626375,31.5129574 C97.4795388,31.6698992 97.2611282,31.7902212 97.0100214,31.8739234 C96.7576067,31.9576257 96.4908057,31.9994769 96.2056948,31.9994769 C95.825111,31.9994769 95.4654528,31.9327766 95.1241045,31.7980683 C94.784064,31.6646678 94.5133394,31.4580278 94.3119308,31.1794561 L94.9737019,30.6092344 Z" id="Fill-22"></path>
            </g>
        </g>
    </g>
</svg>